<?xml version="1.0" encoding="UTF-8"?>
<svg id="Layer_2" data-name="Layer 2" xmlns="http://www.w3.org/2000/svg" viewBox="0 0 913.31 1390.07">
  <defs>
    <style>
      .cls-1 {
        stroke: #fff;
        stroke-miterlimit: 10;
      }

      .cls-1, .cls-2 {
        fill: #fff;
      }

      .cls-3 {
        fill: #fcd116;
      }

      .cls-4 {
        fill: #ce1126;
      }

      .cls-5 {
        fill: #dadae0;
      }

      .cls-6 {
        fill: #002b7f;
      }
    </style>
  </defs>
  <g id="Layer_1-2" data-name="Layer 1">
    <g>
      <path d="M284.36,354.74h345.74c-41.22-12.42-91.1-16.01-132.91-17.59-64.73-2.45-147.56-1.67-212.84,17.59Z"/>
      <path d="M113.66,157.43c1.83,4.82,2.16,11.41,3.51,16.55,5.8,22.13,11.32,44.38,16.91,66.6.38,5.43-3.83,4.25-5.24,8.35,1.72,4.89,6.66,7.9,9.61,11.28,7.43,8.51,11.68,14.19,22.49,19.23l25.94,43.87c1.11,4.19-2.56,12.52-3,17.46-.31,3.43,0,8.67.65,13.96h8.19c-.74-3.75-1.2-7.27-.44-8.77.41-.81,1.15-.98,1.81-1.4,2.06-1.3,19.02-8.64,20.86-8.9.43-.06.84-.22,1.28-.06l9.99,19.12h5.97l-10.27-19.15-.32-2.41,66.56-19.3,6.35,22.82-1.29,1.1c-16.8,4.31-33.82,9.24-49.4,16.95h11.57c74.04-30.67,184.62-34.55,262.65-28.81,46.94,3.45,95.27,11.22,139.17,28.81h12.66c-16.12-8.18-33.98-12.63-51.16-18.04l6.46-22.81,67.39,19.27-11.46,21.59h5.77c3.48-7.3,8.83-17.21,10.22-19.12l24.21,9.69-1.03,9.43h8.52c.72-6.66.62-13.37-.33-20.19-.5-3.6-2.93-7.4-1.85-11.04l25.31-42.93c9.14-5.87,15.51-10.92,22.79-18.93,2.19-2.41,10.77-10.77,9.7-13.59-1.87-2.41-5.75-3.99-5.17-7.47l21-84.2,21.02-22.3,14.63-32.42c0-2.01-3.25-3.59-4.8-4.55-17.03-10.5-37.73-17.86-54.91-28.54-13.06-.84-25.76,1.77-38.7-.22-3.06,16.04-6.22,30.44-8.92,46.84-.55,3.36-6.33,24.16-8.06,25.23-1.84,1.13-12.42-1.33-12.54-4.46l1.57-24.56c4.74-4.11,11-4.45,14.99-9.88,6.98-9.5,7.65-22.27,11.44-33.11.49-.13,1.04-.13,1.53-.05.57-2.97,2.96-13.03,2.87-14.86-.06-1.17-.84-2.07-1.77-2.69-20.59-7.83-40.99-16.58-62.26-22.39l-43.21,16.19c-1.92,10.86-5.82,23.54-4.78,34.6.94,9.96,9.33,19.55,5.56,29.96-1.23,1.05-20.14-2.3-22.62-3.3-.74-.3-3.52-3.41-3.63-4.4,1.27-5.77-2.36-10.25,2.25-15.1,4.55-4.79,9.09-4.55,12.08-12,4.5-11.22,4.83-23.94,6.6-35.92.71-4.78,5.22-14.96-1.62-16.43l-76.64-15.28c-2.91.29-8.84,5.39-11.53,7.33-.59.43-.9,1.78-1.9,2.49-3.77,2.69-16.48,8.89-17.42,13.07-.83,3.66-.41,12.52-.25,16.69.3,7.82,1.24,19.52,3.61,26.88,2.22,6.9,7,11.5,3.56,19.94l-26.59-2.33c-1.54-.71-3.86-15.55-3.64-17.86.38-4.05,6.79-10.1,8.83-13.65,4.5-7.88,4.04-27.58,4.73-36.99.15-2.09,1.34-4.24,1.51-6.51.21-2.75.62-13.54-1.12-14.91-1.64-1.29-17.52-.81-20.97-.76-15.89.26-32.17.95-48.07.87-6.37-.03-34.47-2.25-37.69.02-1.94,1.37-1.46,8.94-1.3,11.61.7,11.44,1.95,34.86,5.6,44.95,1.9,5.26,8.02,9.62,9.67,15.27l-3.34,17.85-27.03,2.42c-3.7-8.52,1.94-14.22,4.1-21.75,1.96-6.82,2.76-16.3,3.04-23.44.17-4.55.9-18.51-2-21.33-3.41-3.31-11.85-7.32-16.11-10.38-2.72-3.25-10-9.66-14.33-9.57-15.7,2.86-31.25,6.96-46.83,10.16-8.7,1.79-18.57,2.54-26.9,4.39-1.93.43-3.53,1.54-5.27,2.37.35,8.79,2.4,17.36,3.8,26.01,1.8,11.12,1.08,23.42,10.09,31.63,2.52,2.3,8.45,4.99,9.08,7.77.72,3.23.89,15.94-2.83,17.07-3.14.96-9.63,1.21-13.25,1.81-2.55.42-5.5,2.6-8.91,1.3-6.14-2.07,3.89-24.37,4.35-29.13.91-9.49-1.48-17.54-3.16-26.62-.32-1.72.13-3.6-.26-5.36-1.52-6.81-17.57-9.08-23.32-11.19-7.34-2.69-14.35-6.36-21.89-8.62l-60.77,21.82c-4.38,2.43-1.79,3.58-1.45,5.89.96,6.41,2.2,8.23,3.71,13.13,3.06,9.88,5.53,30.34,14.06,36.52,2.27,1.65,11.26,4.87,11.86,6.6l.45,25.24-10.71,3.08c-1.91-6.28-5.08-12.26-6.58-18.69-1.72-7.35-1.88-14.9-3.34-22.34-2.06-10.49-6.21-20.53-7.78-31.15-12.65,2.57-25.78-.82-38.53.38l-57.22,29.43-2.65,3.49,14.63,32.43c4.7,7.66,19.02,16.54,21.6,23.34ZM100.43,130.16l21.18-9.58c.9.21,7.47,11.56,4.01,12.7l-16.67,7.15-8.52-10.27ZM126.1,118.13l23.27-10.44,2.89,12.87-20.55,9.26-5.6-11.68ZM113.27,144.19l41.71-19.65,2.36,7.15-38.2,17.6-5.87-5.09ZM120.5,153.47l40.04-17.65,8.08,15.98-44.12,18.47-4-16.8ZM176.22,198.24c-1.31-.13-5.28-14.35-8.39-15.54l13.9-5.95,8.55,15.97-14.07,5.52ZM193.43,196.8l12.1,23.2-16.48,5.44-10.8-23.07,15.18-5.57ZM156.61,179.9l-6.41-14.85,20.36-9.12,9.31,16.74c-8.05,2.1-14.72,6.78-23.25,7.24ZM126.16,175.16l19.99-8.91c.47,3.14,7.66,15.46,6.33,17.56l-22.36,8.93-3.96-17.57ZM135.74,214.4l-3.96-16.77,18.39-7.3c-.54,5.94,3.41,11.01,3.99,16.81l-18.42,7.27ZM137.43,218.5l17.97-7.29,8.08,23.27c-.51.84-16.36,7.23-18.11,7.63-.85.2-1.6.74-2.46.03l-5.47-23.64ZM139.77,250.09l66.99-26.04,5.93,19.96-58.26,21.59c-2.32.02-12.56-12.88-14.65-15.5ZM269.79,143.32c1.61,2.19,4.53,1.35,6.79.67l1.06,1.11,4.12,42.81-33.69-87.87c-.18-1.3-.15-1.31,1.07-1.07,3.01.6,19.82,3.97,20.94,4.75,1.99,1.4,1.46,9.16,2.86,11.95-2.13.99-8.89,1.65-9.54,3.78-.36,1.18,5.44,22.54,6.41,23.86ZM312.26,137.38l18.44-2.42.69,19.15-19.95,2.52.81-19.25ZM312.25,132.55l1.55-19.71,20.84-2.67c.17,3.39,3.35,16.03,1.76,18.04-2.12,2.67-19.86,3.4-24.14,4.34ZM311.79,162.19l19.73-2.82,2.85,29.41-23.73,3.96,1.15-30.55ZM398.9,186.31l1.61,23.27c-33.67,1.4-67.1,6.58-100.3,12.04l-3.15-20.81c33.56-7.07,67.65-11.47,101.84-14.5ZM380.57,125.61c1.57,2.65,8.2.8,11.11,1.33l-7.23,46.53-22.47-91.07,1.12-1.12,14.21,5.86c.94,1.21,1.18,9.73.55,10.74-.45.72-2.28-.01-2.2,2.85.08,2.52,4.03,23.4,4.91,24.87ZM556.98,79.59l42.47,7.27.85,20.83-48.15-6.42,4.83-21.67ZM552.96,48.31l33.72,5.98c2.12,1.51-1.05,11.29-.87,14.04l-30.79-4.68-2.06-15.34ZM581.91,154.15c.47-6.34,1.78-12.94.74-19.18l18.44,2.41.81,19.25-20-2.48ZM603.19,191.88l-.88,1.63-23.34-4.73,2.07-27.74,1.27-1.91,19.25,3.06,1.64,29.68ZM576.59,127.74c-.46-.88,1.4-17.07,2.16-17.54l21.56,2.29.8,20.07c-4.2-.92-22.85-1.65-24.51-4.82ZM573.73,109.38c-.33,2.85-1.17,15.77-2.85,16.82-5.84,3.65-17.61-1.35-24.34-.86l4.1-19.17,23.1,3.22ZM560.99,131.76l-4.03,19.24-16.03-1.59,4.02-20.06,16.05,2.42ZM555.3,155.9l-5.56,29.62-17.65-2.42,7.23-29.68,15.98,2.49ZM617.15,200.76l-4.46,20.89c-32.98-5.99-66.32-10.51-99.85-12.07l1.61-23.28c34.51,2.84,68.75,7.95,102.7,14.45ZM605.91,137.37l25.34,5.57-2.08,20.91-22.33-5.75c-1.39-6.82-.85-13.8-.93-20.73ZM649.95,119.46c-.7-2.17-7.35-3.07-9.54-3.76l2.41-11.43,23.27-5.4-34.49,89.05,4.12-42.8,1.15-1.23,6.68.62c.42-5.05,7.63-21.24,6.4-25.05ZM701.39,138.17l-40.11-13.65,9.67-25.65,31.71,11.17-1.27,28.12ZM703.81,166.26l11.93,4.91-14.33,37.61,2.4-42.52ZM645.25,166.6l6.46-17.14,12.66,4.33-5.51,18.08-13.61-5.27ZM657.27,175.91l-8,26.92c-1.51,1.05-14.04-3.46-16.88-3.69l10.44-27.26,14.43,4.03ZM654.09,145.36l5.6-16.82,18.37,6.5-2.48,11.41-1.21,1.2c-7.63,3.68-12.85-.97-20.28-2.29ZM681.35,183.9l16.84,4.82-1.61,27.27-18.88-5.58c-1.72-2.6,3.32-22.13,3.65-26.52ZM698.18,183.9l-15.99-4.88,3.16-19.2,13.52,4.13-.7,19.94ZM680.12,149.38c-1.4-3.04,2.48-8.48,2.02-12.01l18.06,5.6-.42,16.06c-6.13-1.92-16.73-3.3-19.67-9.65ZM667.71,93.48c-.69,1.13-21.22,4.56-24.39,5.45l-2.1-4.49,27.27-6c.25.25-.41,4.44-.78,5.05ZM701.37,222.45c.76.85-5.02,19.76-6.05,19.98l-77.99-20.38,3.86-19.66c27.27,4.06,53.67,12.71,80.18,20.05ZM607.89,193.57l-1.17-30.52,22.13,5.57-2.87,28.93c-.64.67-17.52-3.13-18.08-3.99ZM509.67,181.46l-8.87-56.12,15.97.88,9.71,56.07-16.81-.84ZM500.8,154.22l4.01,26.47c-10.94-.42-21.95-1.03-32.9-1.6l-.8-24.88h29.69ZM509.93,184.94l-.84,24.26-50.82-1.75.84-24.26,50.82,1.75ZM459.08,118.51v-18.05h32.5l1.07,1.34,2.54,20.33h-27.68c-1.91,0-6.89-2.08-8.42-3.61ZM422.17,95.65l3.25-22.42,62.46.05,3.29,22.38h-69ZM489.23,67.62l-63.43.73c-2.54-.5-4.33-4.87-6.02-6.82-.22-2.45.87-.39,1.19-.39h72.61l-4.36,6.48ZM421.37,100.46h32.9v18.05c-1.05.99-5.85,3.61-6.82,3.61h-29.29l3.21-21.66ZM454.27,183.91v23.27l-48.9,1.56c-1.17-7.67-.91-15.53-1.65-23.23l50.55-1.6ZM441.42,179.08c-10.9,1.19-21.97.81-32.89,1.61l4.01-26.47h29.69l-.81,24.87ZM403.68,181.46l-16.01.84,8.87-56.12,16.01-.84-8.87,56.12ZM374,153.43l7.26,29.67-17.65,2.42-5.56-29.62,15.95-2.47ZM356.38,151.02l-4.01-19.26,16.04-2.42,4.02,20.06-16.05,1.61ZM362.69,106.19c1.57,5.6,2.94,11.31,4.32,16.96.19.79,1.08.87-.17,1.81-8.17.59-16.88,4.56-24.72.99l-2.53-16.6,23.1-3.17ZM287.38,197.55l-2.05-28.94,21.3-5.56-.84,31.25-18.41,3.25ZM307.43,157.03c-6.8,3.99-15.77,4.28-23.26,6.82l-2.44-19.67,1.39-1.84,24.31-4.97v19.66ZM227.99,159.83l3.19,19.23-16.02,4.84-.7-19.95,13.53-4.12ZM213.56,159.03l-.46-16.05,16.91-6.4,4.06,12.85c-2.7.64-3.62,4.18-5.3,5.16-.81.47-14.66,5.02-15.21,4.44ZM232,183.9l4.8,26.43-19.22,5.67-1.5-27.17,15.93-4.93ZM235.23,134.98l19.2-5.59,4.8,15.93c-3.88.21-9.9,3.95-13.26,4.06-2.21.07-4.71-2.2-7.41-1.71l-3.33-12.69ZM261.73,149.73l6.36,18.1-13.61,4.04c-1.32-6.04-2.4-12.74-5.61-18.06l12.85-4.08ZM270.48,171.9l10.47,26.83c-.3,1.48-14.44,3.35-16.83,4.44l-8.05-27.27,14.4-3.99ZM268.64,98.82c-6.76-.27-15.76-4.69-22.92-4.85l-.87-5.54,27.28,5.62c-.5,2.37-.54,4.89-3.49,4.77ZM251.74,124.56l-39.79,12.81-.72-28,31.24-10.18,9.27,25.38ZM212.75,209.58l-15.27-38.07,12.06-5.26,3.21,43.33ZM292.12,202.44l3.32,20.38-77.85,19.67-5.63-20.06c26.56-6.99,52.97-16.09,80.16-19.99ZM169.4,277.42c25.55-10.98,52.2-19.4,79-26.87l5.27,17.6c-25.76,6.34-51.28,13.97-75.84,23.96l-8.43-14.68ZM655.6,266.49l-1.13.12-99.02-18.17,2.73-18.81c34.21,4.34,68.06,10.92,101.43,19.33l-4.01,17.53ZM676.53,276.99l-7.72,24.81c-26.2-7.14-52.8-13.06-79.74-16.8l4.02-25.67,83.45,17.66ZM588.25,258.54l-4,25.66c-24.15-3.66-48.56-6.39-73.01-7.22.53-7.35.15-15.64.81-22.88.08-.9.37-3.41,1.34-3.64l74.87,8.08ZM551.36,248.9c-30.63-3.43-61.44-4.92-92.27-5.62v-20.06c31.28.73,62.69,2.36,93.88,5.61l-1.61,20.07ZM508.03,249.7l-1.6,26.49h-99.5s-1.4-25.31-1.4-25.31l1.11-1.05c33.8-2.04,67.54-1.75,101.39-.12ZM454.27,243.28l-48.53,1.61-42.41,4.06c-1.5-.33-2.78-17.35-2.94-20.12,11.41-.43,22.74-2.34,34.11-3.2,19.92-1.5,39.88-1.47,59.77-2.42v20.06ZM401.32,250.5l.8,26.49c-24.44.58-48.86,3.59-73.01,7.22l-4.02-25.68,76.23-8.03ZM257.71,266.53l-4.01-17.6c33.54-8.33,67.53-14.99,101.87-19.29l2.41,20.06c-33.88,2.76-67.05,10.21-100.27,16.83ZM320.24,259.35l4.05,25.66c-27.07,3.91-53.84,9.72-80.21,16.83-1.62-7.7-4.77-15.06-6.7-22.66-.19-.75-.89-1.13.23-1.78,27.07-7.94,54.78-13.51,82.62-18.05ZM180.25,296.23l52.56-17.65,7.23,24.87-46.54,15.71-13.25-22.93ZM299,334.76l-5.99-21.64,70.59-11.27,2.41,22.46-67.01,10.45ZM454.27,318.7l-84.25,4.82-2.2-21.3c.21-1.18,6.6-1.77,8.22-1.97,10.18-1.23,21.05-1.86,31.3-2.4,15.59-.83,31.27-.83,46.93-.81v21.66ZM545.77,302.27c-.07,6.62-3.05,14.37-2.43,21.26l-84.25-4.82v-21.66c9.48.23,19.03-.3,28.52-.03,1.9.05,3.65.8,5.55.87,16.3.61,35.43.45,51.39,3.19,1.2.21,1.25-.58,1.23,1.2ZM614.72,335.54l-66.63-11.68,1.76-20.68,1.92-1.36,68.52,11.34-5.57,22.39ZM560.48,297.94c-115.98-14.24-258.94-6.12-366.42,41.78-.65.29-1.69,1.39-2.18.23,1.85-3.97,1.39-14.49,5.04-16.62,7.88-4.61,25.97-9.93,35.28-12.86,83.92-26.45,178.21-33.4,265.76-29.44,74.34,3.37,149.31,14.29,218.47,42.3,3.59,2.5,3.57,12.82,5.01,17.04-50.72-22.68-105.77-35.64-160.97-42.42ZM719.34,319.39l-45.19-15.99,6.39-24.82,52.93,18.05c-2.38,2.87-12.18,22.39-14.13,22.76ZM735.51,292.02c-24.34-9.85-49.57-17.34-74.97-23.94l4.42-17.6c26.34,7.2,52.28,15.68,77.59,25.85l1.41,1.82-8.45,13.86ZM753.32,269.95c-1.72,1.11-5.35,3.17-7.18,2.89-182.43-72.33-396.45-72.17-578.92-.01-1.26.51-7.32-3.08-7.43-3.48-.41-1.47,2.2-1.92,3.23-2.37,110.31-46.95,248.8-61.98,367.86-51.78,76.69,6.57,152.12,24.8,223.47,52.96.4,1.88-.25,1.28-1.03,1.79ZM758.91,265.62l-58.32-21.55,6.01-20.04c19.16,6.92,38.58,13.38,57.37,21.26,1.77.74,10.02,3.73,9.61,5.55-.23,1.02-13.44,14.89-14.67,14.77ZM745.51,182.7l-8.07,15.63-14.39-5.62,8.55-15.97c1.11-.32,13.88,5.02,13.9,5.95ZM734.32,172.64l8.04-16.8,20.49,8.8-6.14,15.24c-8.29-.38-14.68-4.93-22.39-7.24ZM735.09,202.37l-10.4,22.91-16.08-5.28,12.03-22.91,1.06-.25,13.39,5.54ZM771.2,242.48c-1.09,1.05-18.62-6.72-21.32-8l8.08-23.27,18.87,8.02-5.63,23.25ZM777.19,214.39l-18-7.26c.67-5.83,4.95-10.7,3.99-16.8l18.36,7.32-4.35,16.74ZM783.21,192.72c-3.47-1.02-21.68-7.51-22.35-10.17l6.34-16.29,19.95,8.93-3.94,17.54ZM788.83,170.25l-44.11-18.45,8.11-15.94,39.7,17.53c1.04,1.46-3.43,14.07-3.7,16.86ZM794.22,149.28l-38.26-17.53,2.78-7.18,41.34,19.23-5.87,5.48ZM760.74,120.06l3.24-12.38c1.41-1.22,19.72,9.95,23.26,10.45l-6,11.94-20.5-10ZM808.52,136.58c-1.04,1.1-3.42,3.95-4.8,3.98l-17.34-8.5,5.36-11.48,21.18,9.58c.47.62-3.7,5.68-4.4,6.42ZM826.47,104.05l-10.73,22.87-12.38-6.88,10.85-22.73,12.26,6.74ZM790.47,85.22l13.58,6.48-9.61,23.99c-.99.71-11.41-4.59-13.27-5.58l9.3-24.89ZM757.95,77.18c.65-.76,12.62-1.38,14.49-1.22,2.39.21,5.64,3.48,8.38,3.67l-8.82,25.64c-2.13.84-6.6-3.21-7.61-3.21h-12.44l6.01-24.88ZM743.2,77.27l5.54-.07-6.32,25.2-5.71.46,6.49-25.59ZM735.9,107.69l24.06-.8-3.98,11.66c-6.95.93-13.88,1.45-20.9,1.17l.81-12.03ZM734,124.64l19.54-.91-3.76,6.26-18.7.95,2.92-6.3ZM729.39,136.26l18.53-1.29-42.51,78.63,15.59-39.89c.99.23,2.1.81,3.11.51,1.38-.41,9.63-19.25,9.83-21.55.27-3.08-8.33-4.32-8.55-5.36l3.99-11.04ZM728.68,153.43l-6.94,15.17-17.85-8.5c1.26-2.69-.22-16.1,1.92-16.28l22.88,9.61ZM709.99,103.06c-2.14,1.41-4.41,2.36-7.01,1.89-9.59-1.75-20.5-8.4-30.38-10.18l.04-5.01,1.72-1.21,36.67,12.73c.41,1.89-.28,1.29-1.04,1.79ZM717.72,98.79l-21.99-7.62,3.65-11.52,23.68,7.97-5.34,11.16ZM719.85,52.32c.49-.44,11.37,2.84,11.26,5.22l-6.52,25.21-12.03-3.65,7.29-26.78ZM710.11,48.69l-7.51,26.12-.86.69-4.36-.71,6.81-28.87,5.92,2.78ZM680.11,37.85c.65-1.18,3.75.46,4.86.82,5.01,1.59,9.8,4.08,14.8,5.69l-7.16,27.7-16.07-4.51,3.56-29.69ZM694.14,78.04l-3.19,11.19c-2.6-1.03-16.24-4.46-16.78-6.14l1.55-10.72,18.42,5.67ZM665.07,42.07c.79-1.94,9.59-4.94,10.65-4.18l-4,28.29-8.83,3,2.18-27.1ZM640.02,50.72l13.22-4.82-1.68,25.59-15.16,3.29,3.62-24.06ZM670.9,72.38l-1.78,11.06-29.9,5.82-2.83-9.66,34.5-7.22ZM607.69,112.72c7.87,1.08,27.85,5.55,34.97,8.36.85.33,2.24.48,2.5,1.51l-4.75,17.19-32.47-7.25-2.83-1.99c-.43-5.12.58-11.04,0-16.05-.04-.34-1.1-1.1-.8-2,1.14-.14,2.25.07,3.38.22ZM600.23,82.4l-41.9-6.97-2.96-6.26,52.95,8.03-8.09,5.2ZM612.06,73.14c-6.25-.25-14.11-3.26-20.63-3.53-1.84-1.26.35-11.56.96-13.98l24.01,3.45c1.73,1.18-.15,14.22-4.33,14.05ZM610.73,27.44l11.22,1.63-3.2,25.66-11.23-1.61,3.21-25.68ZM587.48,22.65c2.26.09,12.28,1.25,12.77,2.88l-3.16,25.18-11.94-1.69,2.34-26.38ZM552.96,15.41l22.94,4.78-2.08,26.52-21.58-3.29.72-28.01ZM528.9,173.47l-7.23-46.53c3.19-.58,9.87,1.58,11.44-1.81,1.04-2.25,4.68-21.67,4.66-24.32-.02-2.95-2.22-2.32-2.48-3.32-.32-1.25-.15-8.77.41-9.88l16.46-6.4-23.26,92.26ZM551.83,75.61l-16.56,6.06-2.04-5.3,16.26-7.09c2.19-.22,2.39,4.75,2.34,6.33ZM541.72,22.23l5.23-4.41h1.19s0,25.27,0,25.27l-6.42,2.81v-23.67ZM548.14,48.31l1.48,15.92-19.11,8.15-2.36-15.53c.49-1.54,17.41-6.64,19.99-8.54ZM527.28,51.52v-18.86l4.42-3.6h1.19s0,20.85,0,20.85l-5.62,1.6ZM532.9,102.07l-4.12,19.95-28.74-1.54-3.25-21.62,36.11,3.21ZM496.41,126.9l3.59,22.51h-28.89c.18-7.9.24-15.57-1.61-23.26l26.11.19.79.56ZM498.4,56.33h-39.32v-15.24h41.72l-2.41,15.24ZM485.56,10.2l1.2-2.01h15.24c.83,0,1.22,1.95,1.28,2.8.25,4.1-1.32,12.31-1.67,16.87-.21,2.79.12,5.63,0,8.42h-16.85l.8-26.08ZM441.43,8.19h30.49v28.08h-30.49V8.19ZM410.14,8.19h16.45c.8.51,1.04,1.11,1.2,2.01,1.28,6.96-.39,18.54.8,26.08h-16.85l-1.6-28.08ZM414.95,56.33l-2.41-15.24h41.72v15.24h-39.32ZM417.76,126.14h25.68l.85,1.63c-3.03,6.75-1.82,14.47-2.06,21.64h-28.89l3.34-21.93,1.07-1.34ZM416.56,98.86c-.54,3.42-1.87,20.01-4,21.27l-27.99,1.89-3.36-19.58,35.35-3.58ZM380.45,29.05h1.19s4.42,3.61,4.42,3.61v18.86l-5.62-2.81v-19.66ZM365.21,17.02l6.41,5.22v23.67l-5.54-1.68c-.76-9.05-1.13-18.1-.87-27.21ZM365.21,49.1c.76-.78,18.2,5.77,19.94,7.76.06,2.13-1.09,15.43-2.69,15.49l-18.73-8.13,1.47-15.12ZM362,69.17c.64-.7,16.5,5.88,17.66,6.83,1.57,1.28-1.93,4.16-1.63,6.01l-16.82-6.47.79-6.37ZM313.05,107.68l.81-20.86,42.5-7.23,4.83,21.66-48.15,6.42ZM358.32,63.65l-30.83,4.72-1.63-12.45.81-1.62,33.72-5.99-2.06,15.34ZM360.39,15.41l.72,28.01-20.67,3.18-2.98-26.41,22.93-4.78ZM325.83,22.7l3.28,26.41-12.84,1.61-2.4-26.48,11.97-1.55ZM294.62,52.69c-1.54-7.48-1.49-16.08-3.24-23.64l11.23-1.61,3.18,25.64-9.88,1.57c-1.07-.34-1.1-1.04-1.29-1.97ZM301.29,73.14c-3.94.17-4.77-10.28-5-13.51l24.68-3.99,1.72,14.33c-6.91-.4-14.83,2.89-21.39,3.17ZM305.03,77.2l52.14-8.83c.1,1.82-.17,6.41-2.13,7.09l-41.76,7.12-8.26-5.38ZM309.04,112.5c.31.87-.8,1.75-.8,2v16.05c-.77,1.13-1.61,1.51-2.83,1.98-9.05,3.48-21.74,4.09-31.21,7.13l-6.02-17.16c.08-.91,5.74-2.22,6.99-2.57,11.05-3.11,22.63-5.45,33.87-7.44ZM273.54,50.1c1.29,1.08,2.84,21.25,3.4,24.68l-15.29-3.69-1.55-25.19,13.44,4.2ZM276.95,79.6c-.54,2.21-1.59,10.24-4.24,10.28l-28.59-6.34-1.67-11.16,34.5,7.22ZM239.6,37.89c2.92.36,6.13,2.75,9.15,3.3l2.2,26.32-.88,1.63-8.09-2.33c-.95-8.66-3.03-17.42-3.59-26.1-.09-1.45-.64-3.04,1.2-2.82ZM238.87,83.65l-16.43,5.55-3.23-11.15,18.39-5.64c.36,2.55,2.59,9.3,1.27,11.25ZM233.61,37.08l3.27,30-15.6,5.25-1.3-1.96-6.43-26.05,20.06-7.24ZM209.54,45.9l6.4,28.86-4.78.83-7.17-28.03,5.55-1.66ZM182.34,56.86c.42-1.47,10.69-4.95,11.15-4.54l7.28,26.76-11.63,3.78-6.8-26ZM190.29,87.63l23.69-7.97,3.57,11.95-21.91,7.18-5.34-11.15ZM202.33,102.86c-.33-2.05.18-1.24,1.12-1.67,11.37-5.13,25.6-8.25,37.38-12.76l.58,5.27-31.68,11.44-7.4-2.28ZM208.74,143.79l.42,16.86c-.46.74-14.21,7.31-15.64,7.66-.86.21-1.61.69-2.46,0l-6.38-14.9,24.07-9.64ZM188.61,146.61c-.11,1.63-9.74,3.02-9.43,6.25.11,1.12,8.3,19.82,9.09,20.63,1.27,1.32,2.52.65,4.06.25l16.4,41.45-43.32-80.23c4.97,1,12.79-.09,17.26.79,2.9.57,3.63,8.51,5.93,10.86ZM182.27,130.95h-11.63c-5.21-1.6-8.88.61-10.81-6.05-.44-1.51.23-1.05,1.17-1.18,5.94-.77,12.3,1.39,18.36.91l2.92,6.31ZM170.12,77.3l6.52,25.57-5.51-.1c-2.67-8.37-3.87-17.18-6.52-25.56l5.51.1ZM177.41,107.72l.85,12c-7.02.35-13.93-.63-20.91-1.16l-3.96-11.67,24.03.84ZM133.69,79.59c6.16-5.05,14.53-3.62,21.72-2.42l6,24.89h-11.63c-1.52,0-6.98,4.18-8.39,3.18l-7.73-22.4.04-3.25ZM122.5,85.23l9.92,24.47c-.08,1.04-12.84,6.62-13.53,6l-9.62-24.03,13.23-6.44ZM98.57,97.35c1.08-.29,1.27.54,1.69,1.27,3.69,6.45,6.19,14.75,9.73,21.42l-11.61,6.1c-1.06.08-1.35-.61-1.88-1.31-3.65-4.86-5.88-15.41-9.65-20.78l11.71-6.71Z"/>
    </g>
    <path class="cls-5" d="M403.68,181.46l-16.01.84,8.87-56.12,16.01-.84-8.87,56.12ZM408.54,180.69c10.91-.8,21.99-.42,32.89-1.61l.81-24.87h-29.69l-4.01,26.47ZM454.27,207.18v-23.27l-50.55,1.6c.73,7.7.48,15.56,1.65,23.23l48.9-1.56ZM443.44,126.14h-25.68l-1.07,1.34-3.34,21.93h28.89c.24-7.17-.98-14.89,2.06-21.64l-.85-1.63ZM606.84,158.1l22.33,5.75,2.08-20.91-25.34-5.57c.08,6.93-.46,13.91.93,20.73ZM701.37,222.45c-26.51-7.34-52.9-16-80.18-20.05l-3.86,19.66,77.99,20.38c1.03-.22,6.8-19.12,6.05-19.98ZM685.35,159.83l-3.16,19.2,15.99,4.88.7-19.94-13.52-4.13ZM625.97,197.55l2.87-28.93-22.13-5.57,1.17,30.52c.56.85,17.44,4.66,18.08,3.99ZM700.2,142.97l-18.06-5.6c.45,3.53-3.43,8.98-2.02,12.01,2.94,6.36,13.54,7.73,19.67,9.65l.42-16.06ZM454.27,100.46h-32.9l-3.21,21.66h29.29c.97,0,5.77-2.62,6.82-3.61v-18.05ZM487.88,73.27l-62.46-.05-3.25,22.42h69l-3.29-22.38ZM234.07,149.43l-4.06-12.85-16.91,6.4.46,16.05c.55.57,14.4-3.97,15.21-4.44,1.67-.98,2.6-4.51,5.3-5.16ZM306.63,163.05l-21.3,5.56,2.05,28.94,18.41-3.25.84-31.25ZM281.73,144.18l2.44,19.67c7.49-2.54,16.46-2.83,23.26-6.82v-19.66l-24.31,4.97-1.39,1.84ZM231.18,179.06l-3.19-19.23-13.53,4.12.7,19.95,16.02-4.84ZM509.93,184.94l-50.82-1.75-.84,24.26,50.82,1.75.84-24.26ZM491.58,100.46h-32.5v18.05c1.53,1.53,6.51,3.61,8.42,3.61h27.68l-2.54-20.33-1.07-1.34ZM471.12,149.4h28.89l-3.59-22.51-.79-.56-26.11-.19c1.84,7.69,1.79,15.37,1.61,23.26ZM236.8,210.33l-4.8-26.43-15.93,4.93,1.5,27.17,19.22-5.67ZM696.58,216l1.61-27.27-16.84-4.82c-.33,4.39-5.37,23.92-3.65,26.52l18.88,5.58ZM504.82,180.69l-4.01-26.47h-29.69l.8,24.88c10.95.57,21.96,1.18,32.9,1.6ZM672.64,89.75l-.04,5.01c9.88,1.78,20.79,8.43,30.38,10.18,2.59.47,4.86-.47,7.01-1.89.76-.5,1.45.1,1.04-1.79l-36.67-12.73-1.72,1.21ZM661.28,124.52l40.11,13.65,1.27-28.12-31.71-11.17-9.67,25.65ZM695.73,91.17l21.99,7.62,5.34-11.16-23.68-7.97-3.65,11.52ZM703.88,160.1l17.85,8.5,6.94-15.17-22.88-9.61c-2.14.18-.66,13.59-1.92,16.28ZM729.39,136.26l-3.99,11.04c.22,1.04,8.82,2.28,8.55,5.36-.2,2.3-8.45,21.14-9.83,21.55-1.01.3-2.12-.28-3.11-.51l-15.59,39.89,42.51-78.63-18.53,1.29ZM760.86,182.54c.67,2.67,18.87,9.16,22.35,10.17l3.94-17.54-19.95-8.93-6.34,16.29ZM616.39,59.09l-24.01-3.45c-.61,2.42-2.8,12.72-.96,13.98,6.53.26,14.38,3.27,20.63,3.53,4.19.17,6.06-12.87,4.33-14.05ZM641.23,94.43l2.1,4.49c3.16-.88,23.7-4.32,24.39-5.45.37-.6,1.03-4.8.78-5.05l-27.27,6ZM604.31,112.5c-.3.9.76,1.66.8,2,.58,5-.43,10.92,0,16.05l2.83,1.99,32.47,7.25,4.75-17.19c-.26-1.03-1.65-1.18-2.5-1.51-7.12-2.8-27.1-7.28-34.97-8.36-1.13-.15-2.24-.36-3.38-.22ZM649.95,119.46c1.23,3.8-5.98,20-6.4,25.05l-6.68-.62-1.15,1.23-4.12,42.8,34.49-89.05-23.27,5.4-2.41,11.43c2.19.69,8.83,1.59,9.54,3.76ZM674.37,147.65l1.21-1.2,2.48-11.41-18.37-6.5-5.6,16.82c7.43,1.32,12.65,5.97,20.28,2.29ZM632.39,199.14c2.84.23,15.36,4.74,16.88,3.69l8-26.92-14.43-4.03-10.44,27.26ZM703.81,166.26l-2.4,42.52,14.33-37.61-11.93-4.91ZM763.97,245.3c-18.79-7.88-38.21-14.34-57.37-21.26l-6.01,20.04,58.32,21.55c1.23.11,14.44-13.75,14.67-14.77.41-1.83-7.83-4.81-9.61-5.55ZM759.19,207.13l18,7.26,4.35-16.74-18.36-7.32c.96,6.1-3.32,10.98-3.99,16.8ZM664.38,153.79l-12.66-4.33-6.46,17.14,13.61,5.27,5.51-18.08ZM749.88,234.49c2.7,1.28,20.23,9.04,21.32,8l5.63-23.25-18.87-8.02-8.08,23.27ZM720.65,197.09l-12.03,22.91,16.08,5.28,10.4-22.91-13.39-5.54-1.06.25ZM762.84,164.63l-20.49-8.8-8.04,16.8c7.7,2.31,14.1,6.86,22.39,7.24l6.14-15.24ZM745.51,182.7c-.03-.93-12.79-6.27-13.9-5.95l-8.55,15.97,14.39,5.62,8.07-15.63ZM755.96,131.75l38.26,17.53,5.87-5.48-41.34-19.23-2.78,7.18ZM294.51,336.7l-6.35-22.82-66.56,19.3.32,2.41,10.27,19.15h11.62c15.58-7.7,32.6-12.63,49.4-16.95l1.29-1.1ZM716.43,323.32c-69.16-28.01-144.13-38.93-218.47-42.3-87.56-3.96-181.84,2.99-265.76,29.44-9.3,2.93-27.39,8.25-35.28,12.86-3.65,2.14-3.19,12.65-5.04,16.62.48,1.16,1.52.06,2.18-.23,107.48-47.9,250.44-56.02,366.42-41.78,55.2,6.78,110.25,19.74,160.97,42.42-1.45-4.22-1.42-14.54-5.01-17.04ZM625.18,313.89l-6.46,22.81c17.18,5.42,35.04,9.87,51.16,18.04h11.23l11.46-21.59-67.39-19.27ZM406.64,249.82l-1.11,1.05,1.4,25.31h99.5s1.6-26.49,1.6-26.49c-33.85-1.63-67.59-1.92-101.39.12ZM551.78,301.81l-1.92,1.36-1.76,20.68,66.63,11.68,5.57-22.39-68.52-11.34ZM589.06,285c26.95,3.74,53.55,9.65,79.74,16.8l7.72-24.81-83.45-17.66-4.02,25.67ZM512.04,254.11c-.65,7.24-.28,15.53-.81,22.88,24.45.83,48.86,3.57,73.01,7.22l4-25.66-74.87-8.08c-.96.22-1.26,2.73-1.34,3.64ZM555.45,248.44l99.02,18.17,1.13-.12,4.01-17.53c-33.37-8.41-67.22-14.99-101.43-19.33l-2.73,18.81ZM459.08,243.28c30.84.7,61.64,2.19,92.27,5.62l1.61-20.07c-31.19-3.26-62.6-4.88-93.88-5.61v20.06ZM544.54,301.06c-15.96-2.74-35.09-2.58-51.39-3.19-1.9-.07-3.65-.81-5.55-.87-9.49-.27-19.04.27-28.52.03v21.66l84.25,4.82c-.61-6.89,2.37-14.64,2.43-21.26.02-1.78-.03-1-1.23-1.2ZM366.01,324.31l-2.41-22.46-70.59,11.27,5.99,21.64,67.01-10.45ZM360.39,48.31l-33.72,5.99-.81,1.62,1.63,12.45,30.83-4.72,2.06-15.34ZM377.86,97.89c.63-1.02.4-9.53-.55-10.74l-14.21-5.86-1.12,1.12,22.47,91.07,7.23-46.53c-2.91-.53-9.54,1.32-11.11-1.33-.88-1.48-4.83-22.35-4.91-24.87-.09-2.86,1.75-2.12,2.2-2.85ZM454.27,297.04c-15.66-.02-31.34-.02-46.93.81-10.25.55-21.12,1.17-31.3,2.4-1.62.2-8.02.79-8.22,1.97l2.2,21.3,84.25-4.82v-21.66ZM313.29,82.58l41.76-7.12c1.96-.68,2.24-5.27,2.13-7.09l-52.14,8.83,8.26,5.38ZM763.99,107.68l-3.24,12.38,20.5,10,6-11.94c-3.55-.5-21.85-11.67-23.26-10.45ZM791.74,120.58l-5.36,11.48,17.34,8.5c1.38-.03,3.76-2.89,4.8-3.98.7-.74,4.87-5.8,4.4-6.42l-21.18-9.58ZM752.84,135.86l-8.11,15.94,44.11,18.45c.27-2.8,4.74-15.4,3.7-16.86l-39.7-17.53ZM255.4,354.74h28.97c65.28-19.26,148.11-20.04,212.84-17.59,41.8,1.58,91.69,5.17,132.91,17.59h27.11c-43.91-17.59-92.23-25.36-139.17-28.81-78.03-5.74-188.62-1.86-262.65,28.81ZM558.33,75.43l41.9,6.97,8.09-5.2-52.95-8.03,2.96,6.26ZM268.09,167.83l-6.36-18.1-12.85,4.08c3.21,5.32,4.28,12.02,5.61,18.06l13.61-4.04ZM146.15,166.25l-19.99,8.91,3.96,17.57,22.36-8.93c1.33-2.09-5.86-14.41-6.33-17.56ZM150.17,190.33l-18.39,7.3,3.96,16.77,18.42-7.27c-.58-5.8-4.53-10.87-3.99-16.81ZM205.53,220l-12.1-23.2-15.18,5.57,10.8,23.07,16.48-5.44ZM150.2,165.04l6.41,14.85c8.53-.46,15.2-5.14,23.25-7.24l-9.31-16.74-20.36,9.12ZM145.36,242.12c1.74-.4,17.6-6.79,18.11-7.63l-8.08-23.27-17.97,7.29,5.47,23.64c.86.71,1.61.17,2.46-.03ZM209.54,166.26l-12.06,5.26,15.27,38.07-3.21-43.33ZM280.96,198.73l-10.47-26.83-14.4,3.99,8.05,27.27c2.38-1.08,16.53-2.96,16.83-4.44ZM206.76,224.05l-66.99,26.04c2.09,2.62,12.33,15.53,14.65,15.5l58.26-21.59-5.93-19.96ZM295.43,222.82l-3.32-20.38c-27.19,3.9-53.6,13-80.16,19.99l5.63,20.06,77.85-19.67ZM674.15,303.41l45.19,15.99c1.95-.37,11.75-19.89,14.13-22.76l-52.93-18.05-6.39,24.82ZM253.7,248.93l4.01,17.6c33.22-6.62,66.4-14.07,100.27-16.83l-2.41-20.06c-34.34,4.3-68.34,10.96-101.87,19.29ZM237.38,279.17c1.92,7.6,5.08,14.97,6.7,22.66,26.37-7.11,53.14-12.93,80.21-16.83l-4.05-25.66c-27.84,4.54-55.56,10.11-82.62,18.05-1.12.65-.42,1.02-.23,1.78ZM329.1,284.21c24.15-3.63,48.58-6.64,73.01-7.22l-.8-26.49-76.23,8.03,4.02,25.68ZM248.4,250.55c-26.8,7.47-53.45,15.89-79,26.87l8.43,14.68c24.57-9.99,50.09-17.62,75.84-23.96l-5.27-17.6ZM176.22,198.24l14.07-5.52-8.55-15.97-13.9,5.95c3.11,1.19,7.08,15.41,8.39,15.54ZM664.95,250.49l-4.42,17.6c25.4,6.6,50.64,14.08,74.97,23.94l8.45-13.86-1.41-1.82c-25.32-10.17-51.26-18.65-77.59-25.85ZM530.89,215.21c-119.06-10.2-257.54,4.83-367.86,51.78-1.04.44-3.65.9-3.23,2.37.11.4,6.17,3.98,7.43,3.48,182.47-72.16,396.49-72.32,578.92.01,1.83.29,5.45-1.78,7.18-2.89.78-.51,1.43.09,1.03-1.79-71.34-28.16-146.77-46.38-223.47-52.96ZM360.39,228.84c.15,2.77,1.44,19.79,2.94,20.12l42.41-4.06,48.53-1.61v-20.06c-19.89.95-39.85.92-59.77,2.42-11.37.85-22.7,2.77-34.11,3.2ZM240.04,303.45l-7.23-24.87-52.56,17.65,13.25,22.93,46.54-15.71ZM245.97,149.38c3.36-.11,9.38-3.85,13.26-4.06l-4.8-15.93-19.2,5.59,3.33,12.69c2.69-.49,5.2,1.78,7.41,1.71ZM386.07,32.66l-4.42-3.6h-1.19s0,19.65,0,19.65l5.62,2.81v-18.86ZM533.24,76.37l2.04,5.3,16.56-6.06c.05-1.58-.15-6.55-2.34-6.33l-16.26,7.09ZM575.9,20.19l-22.94-4.78-.72,28.01,21.58,3.29,2.08-26.52ZM548.14,17.82h-1.19s-5.23,4.41-5.23,4.41v23.67l6.42-2.81v-25.27ZM535.29,97.49c.26,1,2.45.37,2.48,3.32.02,2.66-3.62,22.08-4.66,24.32-1.56,3.38-8.25,1.22-11.44,1.81l7.23,46.53,23.26-92.26-16.46,6.4c-.56,1.11-.73,8.64-.41,9.88ZM600.24,25.53c-.49-1.64-10.51-2.79-12.77-2.88l-2.34,26.38,11.94,1.69,3.16-25.18ZM428.59,36.27c-1.19-7.54.47-19.11-.8-26.08-.16-.9-.41-1.5-1.2-2.01h-16.45l1.6,28.08h16.85ZM471.92,8.19h-30.49v28.08h30.49V8.19ZM532.9,29.05h-1.19s-4.42,3.61-4.42,3.61v18.86l5.62-1.6v-20.86ZM501.61,27.86c.34-4.56,1.92-12.76,1.67-16.87-.05-.85-.44-2.8-1.28-2.8h-15.24l-1.2,2.01-.8,26.08h16.85c.13-2.78-.2-5.63,0-8.42ZM528.14,56.85l2.36,15.53,19.11-8.15-1.48-15.92c-2.59,1.9-19.5,7-19.99,8.54ZM699.77,44.35c-5-1.61-9.8-4.1-14.8-5.69-1.11-.35-4.2-1.99-4.86-.82l-3.56,29.69,16.07,4.51,7.16-27.7ZM701.74,75.49l.86-.69,7.51-26.12-5.92-2.78-6.81,28.87,4.36.71ZM731.11,57.54c.11-2.39-10.77-5.67-11.26-5.22l-7.29,26.78,12.03,3.65,6.52-25.21ZM749.79,130l3.76-6.26-19.54.91-2.92,6.3,18.7-.95ZM675.72,37.88c-1.06-.75-9.86,2.25-10.65,4.18l-2.18,27.1,8.83-3,4-28.29ZM669.13,83.45l1.78-11.06-34.5,7.22,2.83,9.66,29.9-5.82ZM653.25,45.9l-13.22,4.82-3.62,24.06,15.16-3.29,1.68-25.59ZM621.95,29.07l-11.22-1.63-3.21,25.68,11.23,1.61,3.2-25.66ZM690.96,89.23l3.19-11.19-18.42-5.67-1.55,10.72c.54,1.68,14.18,5.11,16.78,6.14ZM755.99,118.55l3.98-11.66-24.06.8-.81,12.03c7.02.27,13.95-.25,20.9-1.17ZM157.34,118.56c6.98.53,13.89,1.51,20.91,1.16l-.85-12-24.03-.84,3.96,11.67ZM160.99,123.73c-.94.12-1.6-.33-1.17,1.18,1.93,6.66,5.6,4.45,10.81,6.05h11.63l-2.92-6.31c-6.06.48-12.42-1.69-18.36-.91ZM200.78,79.08l-7.28-26.76c-.45-.41-10.73,3.07-11.15,4.54l6.8,26,11.63-3.78ZM221.27,72.33l15.6-5.25-3.27-30-20.06,7.24,6.43,26.05,1.3,1.96ZM222.43,89.2l16.43-5.55c1.31-1.95-.91-8.7-1.27-11.25l-18.39,5.64,3.23,11.15ZM215.94,74.76l-6.4-28.86-5.55,1.66,7.17,28.03,4.78-.83ZM100.26,98.62c-.42-.74-.61-1.57-1.69-1.27l-11.71,6.71c3.77,5.37,6,15.91,9.65,20.78.52.7.81,1.39,1.88,1.31l11.61-6.1c-3.54-6.66-6.05-14.97-9.73-21.42ZM132.42,109.7l-9.92-24.47-13.23,6.44,9.62,24.03c.69.61,13.45-4.97,13.53-6ZM149.77,102.07h11.63l-6-24.89c-7.19-1.2-15.56-2.63-21.72,2.42l-.04,3.25,7.73,22.4c1.41,1,6.87-3.18,8.39-3.18ZM176.65,102.86l-6.52-25.57-5.51-.1c2.65,8.38,3.86,17.19,6.52,25.56l5.51.1ZM241.99,66.81l8.09,2.33.88-1.63-2.2-26.32c-3.02-.55-6.23-2.94-9.15-3.3-1.84-.23-1.3,1.36-1.2,2.82.56,8.69,2.64,17.45,3.59,26.1ZM379.66,76c-1.16-.95-17.02-7.53-17.66-6.83l-.79,6.37,16.82,6.47c-.3-1.85,3.2-4.73,1.63-6.01ZM313.86,86.83l-.81,20.86,48.15-6.42-4.83-21.66-42.5,7.23ZM385.15,56.87c-1.74-2-19.19-8.54-19.94-7.76l-1.47,15.12,18.73,8.13c1.59-.06,2.75-13.36,2.69-15.49ZM361.11,43.41l-.72-28.01-22.93,4.78,2.98,26.41,20.67-3.18ZM244.12,83.54l28.59,6.34c2.65-.04,3.7-8.07,4.24-10.28l-34.5-7.22,1.67,11.16ZM371.62,45.9v-23.67l-6.41-5.22c-.26,9.11.11,18.15.87,27.21l5.54,1.68ZM601.91,156.63l-.81-19.25-18.44-2.41c1.04,6.24-.28,12.84-.74,19.18l20,2.48ZM276.94,74.78c-.56-3.43-2.11-23.6-3.4-24.68l-13.44-4.2,1.55,25.19,15.29,3.69ZM295.91,54.66l9.88-1.57-3.18-25.64-11.23,1.61c1.75,7.56,1.7,16.16,3.24,23.64.19.93.22,1.63,1.29,1.97ZM329.1,49.11l-3.28-26.41-11.97,1.55,2.4,26.48,12.84-1.61ZM532.9,102.07l-36.11-3.21,3.25,21.62,28.74,1.54,4.12-19.95ZM384.57,122.02l27.99-1.89c2.13-1.26,3.47-17.85,4-21.27l-35.35,3.58,3.36,19.58ZM419.78,61.53c1.69,1.95,3.48,6.32,6.02,6.82l63.43-.73,4.36-6.48h-72.61c-.32,0-1.41-2.06-1.19.39ZM748.73,77.2l-5.54.07-6.49,25.59,5.71-.46,6.32-25.2ZM459.08,56.33h39.32l2.41-15.24h-41.72v15.24ZM414.95,56.33h39.32v-15.24h-41.72l2.41,15.24ZM334.38,188.78l-2.85-29.41-19.73,2.82-1.15,30.55,23.73-3.96ZM400.51,209.59l-1.61-23.27c-34.19,3.03-68.28,7.43-101.84,14.5l3.15,20.81c33.2-5.45,66.63-10.63,100.3-12.04ZM342.12,125.95c7.84,3.57,16.54-.4,24.72-.99,1.26-.94.37-1.02.17-1.81-1.38-5.66-2.75-11.36-4.32-16.96l-23.1,3.17,2.53,16.6ZM352.36,131.76l4.01,19.26,16.05-1.61-4.02-20.06-16.04,2.42ZM540.92,149.4l16.03,1.59,4.03-19.24-16.05-2.42-4.02,20.06ZM552.96,48.31l2.06,15.34,30.79,4.68c-.18-2.75,2.99-12.53.87-14.04l-33.72-5.98ZM603.19,191.88l-1.64-29.68-19.25-3.06-1.27,1.91-2.07,27.74,23.34,4.73.88-1.63ZM578.74,110.2c-.75.47-2.62,16.66-2.16,17.54,1.66,3.17,20.31,3.89,24.51,4.82l-.8-20.07-21.56-2.29ZM600.3,107.69l-.85-20.83-42.47-7.27-4.83,21.67,48.15,6.42ZM617.15,200.76c-33.96-6.5-68.2-11.62-102.7-14.45l-1.61,23.28c33.53,1.56,66.87,6.08,99.85,12.07l4.46-20.89ZM516.77,126.22l-15.97-.88,8.87,56.12,16.81.84-9.71-56.07ZM532.09,183.1l17.65,2.42,5.56-29.62-15.98-2.49-7.23,29.68ZM546.53,125.33c6.73-.48,18.5,4.52,24.34.86,1.68-1.05,2.52-13.97,2.85-16.82l-23.1-3.22-4.1,19.17ZM330.7,134.96l-18.44,2.42-.81,19.25,19.95-2.52-.69-19.15ZM381.26,183.1l-7.26-29.67-15.95,2.47,5.56,29.62,17.65-2.42ZM121.61,120.58l-21.18,9.58,8.52,10.27,16.67-7.15c3.45-1.14-3.12-12.49-4.01-12.7ZM160.54,135.82l-40.04,17.65,4,16.8,44.12-18.47-8.08-15.98ZM154.97,124.53l-41.71,19.65,5.87,5.09,38.2-17.6-2.36-7.15ZM214.96,335.67c-1.84.26-18.8,7.61-20.86,8.9-.66.41-1.4.59-1.81,1.4-.75,1.5-.3,5.03.44,8.77h33.51l-9.99-19.12c-.44-.17-.85,0-1.28.06ZM126.1,118.13l5.6,11.68,20.55-9.26-2.89-12.87-23.27,10.44ZM336.4,128.21c1.59-2.01-1.59-14.64-1.76-18.04l-20.84,2.67-1.55,19.71c4.28-.94,22.03-1.67,24.14-4.34ZM686.89,354.74h33.4l1.03-9.43-24.21-9.69c-1.39,1.92-6.74,11.82-10.22,19.12ZM794.44,115.68l9.61-23.99-13.58-6.48-9.3,24.89c1.86.98,12.28,6.28,13.27,5.58ZM814.21,97.31l-10.85,22.73,12.38,6.88,10.73-22.87-12.26-6.74ZM772,105.27l8.82-25.64c-2.74-.19-5.99-3.46-8.38-3.67-1.87-.17-13.84.45-14.49,1.22l-6.01,24.88h12.44c1.01,0,5.49,4.05,7.61,3.21ZM270.07,103.73c-1.12-.78-17.93-4.15-20.94-4.75-1.21-.24-1.24-.24-1.07,1.07l33.69,87.87-4.12-42.81-1.06-1.11c-2.26.68-5.18,1.52-6.79-.67-.96-1.31-6.77-22.67-6.41-23.86.65-2.13,7.41-2.79,9.54-3.78-1.4-2.8-.87-10.56-2.86-11.95ZM245.72,93.98c7.16.16,16.16,4.58,22.92,4.85,2.95.12,2.99-2.41,3.49-4.77l-27.28-5.62.87,5.54ZM268.18,122.51l6.02,17.16c9.47-3.04,22.16-3.65,31.21-7.13,1.22-.47,2.07-.85,2.83-1.98v-16.05c0-.25,1.1-1.14.8-2-11.24,1.99-22.82,4.33-33.87,7.44-1.25.35-6.91,1.66-6.99,2.57ZM296.29,59.63c.24,3.23,1.06,13.68,5,13.51,6.56-.28,14.48-3.57,21.39-3.17l-1.72-14.33-24.68,3.99ZM191.05,168.32c.85.68,1.6.2,2.46,0,1.43-.35,15.18-6.92,15.64-7.66l-.42-16.86-24.07,9.64,6.38,14.9ZM192.34,173.74c-1.55.4-2.79,1.06-4.06-.25-.78-.81-8.98-19.51-9.09-20.63-.32-3.24,9.31-4.62,9.43-6.25-2.3-2.35-3.04-10.29-5.93-10.86-4.47-.88-12.29.22-17.26-.79l43.32,80.23-16.4-41.45ZM211.23,109.37l.72,28,39.79-12.81-9.27-25.38-31.24,10.18ZM190.29,87.63l5.34,11.15,21.91-7.18-3.57-11.95-23.69,7.97ZM203.45,101.19c-.94.43-1.45-.38-1.12,1.67l7.4,2.28,31.68-11.44-.58-5.27c-11.79,4.52-26.02,7.63-37.38,12.76Z"/>
    <g>
      <g>
        <path class="cls-3" d="M5.82,484.69l-.16-12.07c-.39-30.34-.8-61.72-1.52-92.27-.1-4.35-.04-8.75.02-13,.06-4.12.12-8.38.02-12.52l-.09-4.09h128.63l699.33,651.08-1.14,2.6c-24.88,56.54-56.12,109.85-92.86,158.45l-2.68,3.54L5.82,484.69Z"/>
        <path d="M131.14,354.74l696.1,648.07c-24.58,55.87-55.62,109.02-92.39,157.65L9.8,482.93c-.45-34.41-.86-68.69-1.66-102.67-.2-8.49.23-17.03.04-25.52h122.96M134.29,346.74H0l.18,8.18c.09,4.07.03,8.29-.02,12.37-.06,4.29-.12,8.73-.02,13.15.72,30.6,1.13,62.04,1.52,92.45l.13,10.15.04,3.41,2.49,2.33,725.06,677.53,6.49,6.06,5.36-7.08c36.92-48.84,68.32-102.42,93.33-159.25l2.29-5.2-4.16-3.87L136.59,348.89l-2.3-2.14h0Z"/>
      </g>
      <g>
        <path class="cls-4" d="M455.66,1385.06c-116.54-49.45-218.88-133.96-295.96-244.39-73.8-105.72-121.65-230.36-138.38-360.44-12.94-100.63-14.31-205.09-15.52-297.25l-.12-9.38,734.55,686.39-2.17,2.87c-75.52,99.91-172.09,176.74-279.26,222.19l-1.56.66-1.56-.66Z"/>
        <path d="M9.8,482.93l725.06,677.53c-72.35,95.71-166.82,173.92-277.63,220.92C215.46,1278.8,58.32,1036.54,25.29,779.73c-12.51-97.28-14.19-197.56-15.49-296.79M1.55,464.28l.25,18.76c1.21,92.27,2.58,196.85,15.56,297.71,8.32,64.71,24.44,128.55,47.89,189.77,23.58,61.54,54.26,119.56,91.18,172.45,37.85,54.22,81.87,102.46,130.83,143.38,50.99,42.6,107.12,77.06,166.84,102.4l3.12,1.33,3.12-1.33c54.84-23.26,107.03-54.66,155.13-93.32,46.32-37.24,88.63-81.02,125.76-130.14l4.35-5.75-5.27-4.92L15.26,477.09l-13.71-12.81h0Z"/>
      </g>
      <g>
        <path class="cls-6" d="M120.98,350.74h788.31l-.98,150.43c-.03,1.64-.35,3.07-.64,4.33-.23,1-.43,1.87-.44,2.64-.17,7.94-.34,15.9-.5,23.9-2.09,100.35-4.24,204.12-22.81,302.19-10.97,57.95-28.8,115.21-53,170.19l-2.27,5.15L120.98,350.74Z"/>
        <path d="M905.26,354.74l-.96,146.41c-.04,2.36-1.03,4.55-1.08,6.91-2.34,107.26-3.26,219.87-23.25,325.43-10.97,57.91-28.78,114.91-52.73,169.33L131.14,354.74h774.12M913.31,346.74H110.81l14.88,13.86,696.1,648.07,8.24,7.67,4.53-10.3c24.32-55.26,42.24-112.81,53.27-171.06,18.63-98.39,20.79-202.33,22.88-302.85.17-7.99.33-15.96.51-23.89,0-.37.19-1.15.34-1.85.31-1.37.7-3.08.74-5.09v-.05s0-.05,0-.05l.96-146.41.05-8.05h0Z"/>
      </g>
    </g>
    <g>
      <path class="cls-2" d="M407.75,1092.26c-1.27.89-.7,2.48-4.11,3.06-28.67,4.84-61.1,4.74-89.3,10.45-20.71,4.19-25.81,23.36-19.51,41.83,7.84,22.95,30.5,19.94,48.87,12.03,1.38-.17,1.36-.13,1.21,1.21-.31,2.67-2.03,6.99-3.19,9.5-11.58,25.08-39.41,17.66-54.23-.18-15.56-18.72-15.67-43.08-22.48-65.44-.04-.99,1.74-3.19,2.47-3.98,2.44-2.64,10.04-7.7,11.59-9.96.69-1.01,1.01-1.75.79-3.01-3.89-2.05-19.27-2.64-21-5.64l-19.21-77.16c-.17-3.58,15.3-6.83,15.69-11.88l-19.38-6.41c-6.66-26.84-9.25-55.68-24.74-79.24l-10.82-12.42,29.99,1.7c47.4,2.68,94.62,4.46,142.06,6.72,24.93,1.19,34.64,6.07,42.23,30.47,10.72,34.48,10.06,72.32,25.66,105.45.39,2.72-10.08,12.51-11.69,15.86.13,2.73,16.69.5,19.43.8,2.71,4.27,4.25,9.1,6.92,13.4,1.55,2.5,10.63,12.85,10.82,13.7.33,1.43-1.13,1.71-2.11,2.1-2.97,1.16-21.14,4.07-24.64,4.16-5.36.14-11.43-4.86-16.34-1.19-1.32.98-1.9,3.32-3.12,3.71-2.44.78-7.63-2.61-11.86.36ZM261.25,906.87c-12.71-.92-25.22-4.14-38.04-3.38.32,1.55,1.66,1.56,2.93,1.71,10.71,1.28,22.02,2.69,32.79,2.8,1.11.01,1.86.74,2.33-1.14ZM411.72,956.73c-1.13-16.85-4.6-41.34-24.51-44.79,5.59,4.67,11.72,7.9,15.39,14.61,4.94,9.03,4.05,19.41,7.04,28.5.48,1.46.04,2.02,2.08,1.68ZM313.66,937.29c-4.13-10.67-8.41-1.71-12.76-2.09-3.73-.32-7.54-5.31-9.66-5.53-4.82-.5-11.99,6.51-16.96,6.73-5.23.23-10.35-5.92-15.19-6.66-4.11-.63-10.23.82-13.89,2.92-.33,2.27,1.26.87,2.4.71,14.43-2.03,9.78.1,20.69,4.92,9.62,4.25,14.53-5.38,22.17-5.11,2.9.1,5.63,4.6,9.35,4.96,5.08.49,8.09-6.23,13.85-.84ZM390.59,935.6c-18.27,2.7-35.07-6.12-53.06,1.45-1.05.44-2.49.46-2.73,1.91,6.66.43,13.4-3.18,19.85-3.41,11.94-.43,21.19,4.21,34.67,1.7,1.38-.26,1.46.55,1.27-1.66ZM290.84,955.89h-27.47c-.75,0-3.06,1.57-4.65.85v.84s29.16,0,29.16,0c.51,0,1.91-1.18,2.95-.85v-.84ZM349.16,956.74c-5.47-.49-11.11,1.46-16.44,1.72-9.63.47-19.14-.37-28.81.78-1.27.15-2.6.16-2.92,1.71,5.63,2.57,10.1-1.07,15.65-.89,3.7.12,7.17,1.82,10.94,1.77,4.82-.06,14.51-2.13,19.24-3.66.89-.29,2.55-.21,2.35-1.43ZM381.71,957.58c-4.9.28-9.89-.21-14.79,0l-.84,2.53c6.69,1.09,13.86-.2,20.28-2.54-.29-2.32-3.99-.03-4.64.01ZM397.35,982.1c-8.67-.51-18.02.66-26.61-.02-9.69-.77-13.19-3.66-23.94-1.08-3.79.91-9.9,2.91-12.85,5.32,7.1,1.32,13.97-3.35,20.72-3.44,9.49-.12,20.47,4.14,30.41,2.59l12.27-3.36ZM300.98,982.95c-10.41,1-22.37-.13-32.55.83-1.15.11-3,.4-3.79,1.27l14.7,2.03,14.23-1.83,7.41-2.3ZM382.14,1005.77c-.11,3.76,6.88,2.68,9.62,2.43,4.24-.4,12.64-2,14.04-6.66l-23.66,4.23ZM366.08,1005.77c-9.32.38-17.12-2.87-26.38-.61-3.21.78-8.23,3.8-11.31,3.94-3.43.15-6.9-2.86-11.74-2.51-5.21.37-8.52,4.97-12.71,5.15-3.56.15-8.21-2.72-12.04-3.21-7.4-.96-15.66,1.6-20.5,7.38,6.37-1.39,10.98-5.61,17.94-4.87,4.05.43,9.98,3.98,13.64,3.77,3.51-.2,7.92-4.31,12.04-4.75,4.95-.53,8.94,2.76,13.34,2.45s10.14-5.3,15.56-5.72c6.6-.5,16.21,4.68,22.16-1.01ZM410.03,1023.52c-3.08.65-26.17,2.77-26.19,4.64,4,2.66,10.82.99,15.35.15,3.75-.69,8.79-1.12,10.84-4.79ZM369.46,1029.44c-5.28.6-10.35,2.89-15.65,3.36-10.45.93-21.13-1.55-31.3-.86-5.98.41-12.11,2.87-17.73,3.41-9.48.9-21.18-2.44-29.16,4.23,8.44-2.63,16.48-.12,24.92-.85,5.21-.45,10.93-2.6,16.17-3.27,13.01-1.66,25.23,1.9,37.93.73,5.25-.48,11.6-2.22,14.81-6.74ZM391.44,1051.4c-4.34-5.87-14.14-.21-17.75,4.23l17.75-4.23ZM346.63,1060.72c-9.6.12-18.23-8.72-27.64-3.56-1.77.97-3.17,3.39-4.91,3.56-2.49.24-7.63-1.73-10.97-1.76-4.6-.05-13.3,1.55-17.08,4.13-1.08.74-2.31.95-1.95,2.69,5.75-1.86,11.33-3.13,17.47-3.06,3.7.05,10.33,1.92,13.35,1.37,2.49-.45,3.59-3.44,5.6-4.58,7.35-4.17,13.82,3.09,21.37,2.8.74-.03,4.75-.46,4.77-1.59ZM435.39,1075.08c-.54-.52-6.48,3.67-8.22,4.03-13.69,2.82-16.35-9.01-28.54-8.24-5.91.37-11.29,2.32-13.12,8.43,4.01-.34,4.94-3.77,9.25-4.69,12.19-2.58,12.67,4.5,21.34,6.65,6.46,1.6,16.59,1.01,19.28-6.18ZM328.88,1178.21h-13.1c-.43,0-5.03-1.33-5.96-1.64-20.45-6.8-27.52-34.85-32.07-53.31.3,25.08,15.98,61.52,46.42,57.41,1.53-.21,4.16-.73,4.73-2.46Z"/>
      <path class="cls-2" d="M190.25,899.24c-9.02-1-19.33,4.1-24.86,11.07-12.15,15.31-8.31,56.45,16.85,53.18,1.16-.15,2.66-.62,1.25-1.69-19.85.69-25.24-22.64-21.77-38.25,3.18-14.3,18.77-23.94,33.12-21.72,2.52.39,7.08,2.9,7.24,5.86-7.05-.03-18.87-.1-21.97,7.61,5.02-4.07,21.97-7.14,26.08-2,.88,1.11,5.02,9.79,4.34,10.44-11.38-.57-26.16-5.46-34.65,4.67-.37,1.91.81,1.07,1.98,1.37,10.13,2.58,17.58,4.31,17.48,17.18-.12,15.8-10.35,29.6-26.82,20.07-15.58-9.03-20.12-35.74-13.94-51.46,5.18-13.17,22.33-26.41,35.66-16.34ZM206.3,915.31c-3.65.38-9.41.29-11.83,3.37,3.46-.77,7.08-1.07,10.56-1.71,1.39-.26,1.46.54,1.27-1.66Z"/>
      <path class="cls-2" d="M211.8,928.84c4.31.67,2.95,3.97,4.51,7.21l-1.97,1.24-7.18.83,9.33.4,2.5,5.93c-.48,2.48-8.25.49-10.14,1.71,1.64,2.66,10.06.45,10.94,1.32l.89,5.87c-.48.45-11.65-.54-12.68,2.53l12.14-.76.97.76c.39,2.07,2.16,4.5-.01,5.93h-14.37c-.14,0-2.47.83-2.11,1.68,6.34.38,12.27.63,18.6.01v3.37s-28.74,3.38-28.74,3.38c1.29-3.66,4.03-6.41,5.48-10.15,3.57-9.25,2.2-15.96-.17-25.17-.59-2.31-3.15-4.45-.66-6.1,3.95.43,8.9-.59,12.68,0Z"/>
      <path d="M369.46,1029.44c-3.21,4.52-9.56,6.26-14.81,6.74-12.69,1.16-24.92-2.4-37.93-.73-5.24.67-10.97,2.82-16.17,3.27-8.44.73-16.49-1.78-24.92.85,7.98-6.67,19.68-3.32,29.16-4.23,5.61-.53,11.75-3,17.73-3.41,10.17-.69,20.85,1.8,31.3.86,5.3-.47,10.37-2.76,15.65-3.36Z"/>
      <path d="M366.08,1005.77c-5.95,5.68-15.56.5-22.16,1.01-5.42.41-11.1,5.4-15.56,5.72s-8.39-2.98-13.34-2.45c-4.12.44-8.54,4.55-12.04,4.75-3.67.21-9.59-3.33-13.64-3.77-6.96-.74-11.57,3.48-17.94,4.87,4.83-5.78,13.09-8.34,20.5-7.38,3.83.5,8.47,3.37,12.04,3.21,4.19-.18,7.5-4.78,12.71-5.15,4.84-.35,8.31,2.67,11.74,2.51,3.08-.14,8.1-3.16,11.31-3.94,9.26-2.26,17.06.99,26.38.61Z"/>
      <path d="M313.66,937.29c-5.76-5.39-8.77,1.33-13.85.84-3.72-.36-6.44-4.86-9.35-4.96-7.64-.27-12.55,9.36-22.17,5.11-10.9-4.82-6.26-6.95-20.69-4.92-1.14.16-2.73,1.57-2.4-.71,3.65-2.1,9.77-3.55,13.89-2.92,4.84.75,9.97,6.89,15.19,6.66s12.13-7.23,16.96-6.73c2.12.22,5.92,5.21,9.66,5.53,4.35.38,8.63-8.58,12.76,2.09Z"/>
      <path d="M346.63,1060.72c-.02,1.13-4.03,1.57-4.77,1.59-7.54.29-14.01-6.97-21.37-2.8-2.01,1.14-3.11,4.13-5.6,4.58-3.01.55-9.65-1.33-13.35-1.37-6.13-.08-11.72,1.2-17.47,3.06-.37-1.75.87-1.96,1.95-2.69,3.78-2.58,12.48-4.18,17.08-4.13,3.34.03,8.48,2,10.97,1.76,1.73-.17,3.14-2.59,4.91-3.56,9.42-5.16,18.04,3.69,27.64,3.56Z"/>
      <path d="M397.35,982.1l-12.27,3.36c-9.94,1.55-20.92-2.71-30.41-2.59-6.75.09-13.62,4.76-20.72,3.44,2.95-2.41,9.05-4.41,12.85-5.32,10.74-2.57,14.25.31,23.94,1.08,8.59.69,17.94-.48,26.61.02Z"/>
      <path d="M435.39,1075.08c-2.69,7.19-12.82,7.78-19.28,6.18-8.67-2.15-9.15-9.23-21.34-6.65-4.31.91-5.25,4.35-9.25,4.69,1.82-6.11,7.21-8.06,13.12-8.43,12.19-.77,14.84,11.06,28.54,8.24,1.74-.36,7.68-4.55,8.22-4.03Z"/>
      <path d="M411.72,956.73c-2.03.34-1.6-.22-2.08-1.68-3-9.09-2.1-19.47-7.04-28.5-3.67-6.71-9.8-9.95-15.39-14.61,19.91,3.45,23.38,27.94,24.51,44.79Z"/>
      <path d="M390.59,935.6c.19,2.21.11,1.4-1.27,1.66-13.48,2.51-22.73-2.14-34.67-1.7-6.44.23-13.18,3.84-19.85,3.41.23-1.45,1.68-1.47,2.73-1.91,17.99-7.57,34.8,1.24,53.06-1.45Z"/>
      <path d="M349.16,956.74c.2,1.22-1.46,1.14-2.35,1.43-4.73,1.54-14.43,3.6-19.24,3.66-3.77.05-7.24-1.65-10.94-1.77-5.54-.18-10.01,3.45-15.65.89.32-1.55,1.66-1.56,2.92-1.71,9.67-1.15,19.18-.31,28.81-.78,5.33-.26,10.98-2.2,16.44-1.72Z"/>
      <path d="M300.98,982.95l-7.41,2.3-14.23,1.83-14.7-2.03c.79-.87,2.64-1.16,3.79-1.27,10.18-.96,22.14.17,32.55-.83Z"/>
      <path d="M410.03,1023.52c-2.04,3.68-7.09,4.1-10.84,4.79-4.53.83-11.35,2.5-15.35-.15.02-1.87,23.1-3.99,26.19-4.64Z"/>
      <path d="M382.14,1005.77l23.66-4.23c-1.4,4.66-9.81,6.26-14.04,6.66-2.73.26-9.73,1.33-9.62-2.43Z"/>
      <path d="M261.25,906.87c-.47,1.88-1.21,1.15-2.33,1.14-10.77-.11-22.07-1.52-32.79-2.8-1.27-.15-2.6-.16-2.93-1.71,12.82-.76,25.33,2.46,38.04,3.38Z"/>
      <path d="M290.84,955.89v.84c-1.05-.32-2.45.85-2.96.85h-29.16v-.84c1.58.72,3.9-.85,4.65-.85h27.47Z"/>
      <path d="M391.44,1051.4l-17.75,4.23c3.61-4.43,13.42-10.09,17.75-4.23Z"/>
      <path d="M381.71,957.58c.65-.04,4.35-2.33,4.64-.01-6.42,2.33-13.59,3.62-20.28,2.54l.84-2.53c4.9-.21,9.89.28,14.79,0Z"/>
      <path d="M206.3,915.31c.19,2.2.12,1.4-1.27,1.66-3.48.64-7.1.94-10.56,1.71,2.42-3.08,8.18-2.99,11.83-3.37Z"/>
      <g>
        <path d="M436.24,1052.25l16.89-.4c2.57,1.16,6.98,12.34,8.96,15.56,3.2,5.22,7.72,9.69,10.68,15.1,41.01-4.96,60.98,55.59,29.64,79.22,6.21,8.82-4.09,15.75-5.13,22.2-.5,3.11.77,5.86.73,9.09-.09,7.18-3.94,9.35-9.42,12.83,1.42,7.4,4.75,14.44,5.89,21.91.88,5.79,2.82,19.43-6.19,18.93-7.76-.43-5.13-11.18-5.66-16.37-.39-3.76-2.96-19.53-5.8-21.25-1.67-1.01-4.81-.19-6.78-.42.78,13.98-1.01,27.79-4.84,41.23-1.09,3.81-4.4,14.36-6.6,17.07-3.49,4.32-8.86,2.4-10.19-2.49-.69-2.55,6.56-21.22,7.7-26.2,1.96-8.58,3.28-17.4,2.94-26.21-8.79,1.74-15.38,1.9-20.13-6.49-1.49-2.63-2.27-6.95-4.35-9.17-2.65-2.83-10.04-4.64-11.76-7.68-1.91-3.36-.96-9.32-.1-13-28.83,4.33-57.24,12.33-86.04,16.65-54.66,8.21-67.21-28.91-76.53-74.3-.8-3.91-3.41-13.23-1.48-16.39,1.61-2.65,10.42-7.61,12.73-10.5-3.48-.2-17.01-.52-18.66-3.1l-19.98-81.24-.1-5.13c.82-1.31,9.52-3.1,11.46-4.16.98-.53,1.43.03,1.08-1.88l-15.65-4.23-3.81-18.6-46.05,5.97c-47.47-6.7-48.26-90.5,3.38-91.73,27.82-.66,61.21,3.1,89.6,4.61,25.68,1.37,51.23,3.05,76.97,4.18,35.12,1.55,62.17-2.12,73.32,38.26,7.41,26.83,9.35,55.63,17.29,83.31,1.27,4.41,7.4,19.35,6.86,22.4-.66,3.67-8.95,8.81-10.86,12.45ZM407.75,1092.26c4.23-2.97,9.42.43,11.86-.36,1.22-.39,1.8-2.73,3.12-3.71,4.91-3.68,10.98,1.33,16.34,1.19,3.5-.09,21.67-3,24.64-4.16.99-.39,2.44-.67,2.11-2.1-.19-.85-9.27-11.2-10.82-13.7-2.67-4.3-4.21-9.13-6.92-13.4-2.74-.3-19.29,1.93-19.43-.8,1.61-3.35,12.08-13.13,11.69-15.86-15.61-33.14-14.94-70.98-25.66-105.45-7.59-24.4-17.3-29.28-42.23-30.47-47.44-2.26-94.66-4.04-142.06-6.72l-29.99-1.7,10.82,12.42c15.49,23.56,18.07,52.4,24.74,79.24l19.38,6.41c-.38,5.05-15.86,8.3-15.69,11.88l19.21,77.16c1.73,3,17.11,3.59,21,5.64.22,1.26-.09,1.99-.79,3.01-1.55,2.26-9.15,7.32-11.59,9.96-.73.79-2.51,3-2.47,3.98,6.81,22.36,6.92,46.71,22.48,65.44,14.82,17.84,42.65,25.26,54.23.18,1.16-2.51,2.88-6.84,3.19-9.5.16-1.33.17-1.38-1.21-1.21-18.37,7.91-41.03,10.91-48.87-12.03-6.31-18.47-1.21-37.63,19.51-41.83,28.2-5.71,60.63-5.61,89.3-10.45,3.42-.58,2.84-2.16,4.11-3.06ZM190.25,899.24c-13.32-10.07-30.48,3.17-35.66,16.34-6.18,15.72-1.65,42.43,13.94,51.46,16.46,9.54,26.7-4.26,26.82-20.07.09-12.86-7.35-14.6-17.48-17.18-1.16-.3-2.35.54-1.98-1.37,8.48-10.13,23.27-5.24,34.65-4.67.68-.66-3.46-9.34-4.34-10.44-4.11-5.15-21.06-2.07-26.08,2,3.09-7.71,14.92-7.64,21.97-7.61-.16-2.96-4.71-5.47-7.24-5.86-14.35-2.22-29.94,7.42-33.12,21.72-3.47,15.61,1.92,38.94,21.77,38.25,1.4,1.06-.09,1.54-1.25,1.69-25.16,3.27-29-37.87-16.85-53.18,5.53-6.97,15.84-12.07,24.86-11.07ZM211.8,928.84c-3.78-.59-8.73.43-12.68,0-2.48,1.65.07,3.79.66,6.1,2.37,9.21,3.74,15.92.17,25.17-1.44,3.74-4.18,6.49-5.48,10.15l28.74-3.38v-3.37c-6.33.62-12.26.37-18.6-.01-.36-.85,1.97-1.68,2.11-1.68h14.37c2.17-1.43.41-3.86.01-5.93l-.97-.76-12.14.76c1.03-3.07,12.19-2.09,12.68-2.53l-.89-5.87c-.88-.87-9.3,1.34-10.94-1.32,1.89-1.22,9.66.77,10.14-1.71l-2.5-5.93-9.33-.4,7.18-.83,1.97-1.24c-1.56-3.24-.2-6.54-4.51-7.21ZM509.78,1136.36c.57-4.27,0-10.64,0-15.22,0-.31-.86-1.36-.99-1.98l-18.45,1.54,18.59-4.23-5.65-9.19-23.09,4.12c-.42-2.48.59-1.37,1.96-1.79,6.29-1.92,13.44-3.45,20-4.13.84-.76-4.3-7.51-5.3-7.91-4.09-1.63-24.15,5.99-30.19,4.53-.16-2.11-.2-1.45,1.27-1.67,8.42-1.25,16.64-2.89,24.95-4.66,1.48-1.16.33-1.21-.56-2-7.56-6.66-16.11-3.83-25.1-2.53-7.52,1.09-15.19,2.66-22.54,4.52,9.3,12.19,18.4,24.53,21.94,39.8,6.41-.69,10.6-1.21,16.38,2.18,2.84,1.66,4.47,4.67,7.33,5.76.86-1.03-1.66-9.07,1.69-10.14.71,6.61-2.2,18.74,5.09,22.44,1.9.97,6.55-5.89,7.62-7.63,1.79-2.9,4.62-8.62,5.05-11.86ZM425.25,1092.82c15.21,5.95,25.22,22.11,31.68,36.38.93,2.05,1.33,5.4,2.29,7.01,1.54,2.57,4.25,1.77,3.72-1.13-2.22-12.3-13.19-28.54-22.47-36.76-2.99-2.65-13.29-12.34-15.23-5.49ZM446.36,1138.45c-2.14-11.09-10.03-23.41-17.71-31.69-1.93-2.08-15.72-15.11-17.77-13.08.93,4.84,7,7.98,10.57,11.82,9.55,10.25,15.83,21.25,22.37,33.44l2.54-.49ZM456.53,1137.63c-4.56-12.74-11.62-25.31-21.97-34.24-1.11-.96-7.51-6.35-8.46-5.48l15.24,19.84c2.91,2.68,9.27,20.17,11.48,20.55,1.02.18,2.5-.88,3.71-.67ZM439.57,1141.8c-2.62-10.62-9.64-21.01-16.83-29.12-3.71-4.19-10.03-11.62-15.62-11.41-13.15.48-31.06,5.08-44.85,6.78-10.79,1.33-21.83,1.2-32.54,3.39-.47,1.95.37,1.39,1.07,1.93,1.18.92,9.84,7.01,10.46,7.11,3.11.51,16.34-2.8,21.02-3.13,1.54-.11,3.1,0,4.64,0,.41,2.54-.61,1.36-2.05,1.71-6.81,1.66-14.61,2.66-21.62,3.36,1.31,11.29,11.44,4.19,18.61,6.34l-13.54,2.96,2.53,7.19c1.77,1.08,5.79.13,8.06.41,1.17.15,2.59.59,1.26,1.69l-9.24,1.76c2.34,14.4,2.61,28.79-8.51,39.66,15.02,1.18,17.98-19.09,17.76-30.42l1.67,8.03c.42,6.8-2.61,14.8-7.59,19.45-.36,1.83.85,1.29,2.13,1.29,2.32,0,14.96-3.3,16.52-4.63,3.76-3.21,5.91-13.47,7.56-18.22,1.58.5.92,5.01.74,6.24-.56,3.97-2.47,7.61-3.29,11.5.55.49,7.99-.18,9.07-1.06,2.18-1.78,4.18-13.51,5.31-16.68,1.5-.15.9,2.86.82,3.78-.37,4.2-2.34,8.05-2.51,12.27l11-2.94,4.23-15.65c1.47.04,1.76-.57,1.49,1.06-.84,5.04-1.94,10.05-3.19,14.99l9.94-1.88,4.44-18.4c1.45-.16.93,2.92.87,3.83-.3,4.43-.96,9.12-1.6,13.53.26,2.17,8.27-.46,9.52-1.37,2.56-1.87.98-9.66,1.34-13.03.66-6.2,5.05-10.73,10.94-12.32ZM338.18,1129.18c.21-1.69-1.43-2.8-2.52-3.81-8.83-8.2-24.18-17.69-32.84-4.08-6.6,10.37-2.15,36.68,12.96,36.71,8.38.01,11.55-9.09,7.92-15.6-1.9-3.4-7.2-4.68-7.12-8.16,1.81-3.41,17.46-4.12,21.6-5.06ZM336.49,1146.09c3.81-.68,8.77-1.01,7.24-5.95-2.69-8.68-9.9-3.01-16.54-4.19.29,2.27,2.16,3.64,2.95,5.92,1.81,5.25,1.88,11.01-.41,16.05,5.57-1.5,17.24-2.23,15.21-10.14-.9-.91-8.6,3.36-8.45-1.68ZM448.07,1206.11c3.99,5.99,7.35,1.34,11.49.07,9.57-2.94,27.55-.16,32.64-10.46,2.26-4.58.23-6.93.84-10.96,1.43-9.47,10.35-12.86,3.58-23.41-2.31-3.59-10.3-14.42-13.05-17.38-6.82-7.34-13.26-2.18-20.77-1.34-8.85.99-15.65-1.35-23.82,4.92-8.68,6.67-3.37,15.5-6.35,24.08-1.23,3.56-5.2,6.5-4.5,10.83.65,4.01,8.06,8.61,11.07,11.78,3.27,3.44,6.2,10.38,11.4,11.01l-2.53.84ZM482.32,1206.96c-2.65.71,1.27,8.17,1.71,10.11.71,3.12,1.61,7.58,1.98,10.7.34,2.82-1.36,16.3,3.9,14.69,1.78-.54,1.36-4.82,1.27-6.32-.31-5.02-1.78-12.35-2.94-17.35-.63-2.73-2.33-12.78-5.92-11.82ZM464.57,1209.49c-2.27.52-2.6,15.76-3.09,18.9-.85,5.39-1.86,10.86-3.33,16.11-1,3.56-7,16.91-6.57,18.47.26.94,1.3,1.65,2.01,2.29,2.1.45,5.43-8.92,6.1-10.77,3.52-9.79,6.6-24.88,7.01-35.25.07-1.86.82-10.43-2.14-9.75Z"/>
        <path class="cls-2" d="M439.57,1141.8c-5.89,1.59-10.28,6.12-10.94,12.32-.36,3.37,1.22,11.16-1.34,13.03-1.25.92-9.26,3.54-9.52,1.37.64-4.4,1.3-9.1,1.6-13.53.06-.9.58-3.99-.87-3.83l-4.44,18.4-9.94,1.88c1.25-4.94,2.35-9.96,3.19-14.99.27-1.63-.02-1.02-1.49-1.06l-4.23,15.65-11,2.94c.17-4.22,2.15-8.07,2.51-12.27.08-.92.68-3.93-.82-3.78-1.13,3.17-3.12,14.89-5.31,16.68-1.08.88-8.53,1.55-9.07,1.06.82-3.89,2.73-7.52,3.29-11.5.17-1.24.84-5.75-.74-6.24-1.66,4.75-3.81,15.02-7.56,18.22-1.56,1.33-14.2,4.63-16.52,4.63-1.28,0-2.48.54-2.13-1.29,4.98-4.65,8.01-12.64,7.59-19.45l-1.67-8.03c.22,11.33-2.74,31.6-17.76,30.42,11.12-10.87,10.85-25.26,8.51-39.66l9.24-1.76c1.34-1.1-.09-1.54-1.26-1.69-2.26-.28-6.28.66-8.06-.41l-2.53-7.19,13.54-2.96c-7.17-2.14-17.3,4.96-18.61-6.34,7-.7,14.8-1.7,21.62-3.36,1.43-.35,2.46.83,2.05-1.71-1.54,0-3.09-.1-4.64,0-4.68.32-17.91,3.63-21.02,3.13-.62-.1-9.28-6.19-10.46-7.11-.7-.54-1.54.02-1.07-1.93,10.71-2.19,21.75-2.07,32.54-3.39,13.79-1.69,31.7-6.3,44.85-6.78,5.59-.2,11.91,7.22,15.62,11.41,7.19,8.11,14.21,18.51,16.83,29.12ZM371.14,1151.15c-3.18-.63-.75,3.16-.9,5.36-.35,5.32-2.37,10.58-3.32,15.77l3.98-9.11c.92-4.28,1.19-7.73.23-12.03Z"/>
        <path class="cls-2" d="M509.78,1136.36c-.43,3.23-3.26,8.95-5.05,11.86-1.07,1.73-5.72,8.59-7.62,7.63-7.29-3.7-4.38-15.83-5.09-22.44-3.34,1.07-.82,9.11-1.69,10.14-2.86-1.1-4.49-4.1-7.33-5.76-5.78-3.39-9.96-2.87-16.38-2.18-3.54-15.27-12.65-27.61-21.94-39.8,7.35-1.86,15.03-3.44,22.54-4.52,8.99-1.3,17.54-4.13,25.1,2.53.89.79,2.05.85.56,2-8.31,1.76-16.53,3.41-24.95,4.66-1.47.22-1.42-.44-1.27,1.67,6.04,1.46,26.1-6.16,30.19-4.53,1.01.4,6.14,7.15,5.3,7.91-6.56.67-13.71,2.2-20,4.13-1.38.42-2.39-.68-1.96,1.79l23.09-4.12,5.65,9.19-18.59,4.23,18.45-1.54c.13.61.99,1.67.99,1.98,0,4.58.57,10.95,0,15.22ZM502.17,1143.13c.58-4.87-.42-10.65,0-15.64-1.11-.22-1.36,1.57-1.48,2.32-.67,4.43-.46,9.3-1.2,14.03-.57,3.65-2.48,7.31-1.98,10.7,2.35-2.27,4.28-8.21,4.65-11.41Z"/>
        <path class="cls-2" d="M448.07,1206.11l2.53-.84c-5.2-.63-8.13-7.56-11.4-11.01-3.01-3.17-10.43-7.78-11.07-11.78-.7-4.33,3.27-7.27,4.5-10.83,2.98-8.59-2.33-17.41,6.35-24.08,8.16-6.28,14.97-3.94,23.82-4.92,7.52-.84,13.95-6,20.77,1.34,2.75,2.96,10.74,13.79,13.05,17.38,6.77,10.55-2.14,13.93-3.58,23.41-.61,4.03,1.42,6.38-.84,10.96-5.1,10.31-23.07,7.52-32.64,10.46-4.14,1.27-7.51,5.92-11.49-.07ZM486.95,1188.35c3.54-14.05,4.42-26.56-8.05-36.33-21.16-16.58-47.8,7.06-38.46,30.85,7.54,19.22,32.43,20.54,44.1,4.78l2.41.69Z"/>
        <path class="cls-2" d="M338.18,1129.18c-4.14.94-19.8,1.65-21.6,5.06-.08,3.47,5.22,4.75,7.12,8.16,3.63,6.51.47,15.61-7.92,15.6-15.12-.02-19.56-26.34-12.96-36.71,8.66-13.61,24.01-4.12,32.84,4.08,1.09,1.01,2.73,2.12,2.52,3.81ZM313.66,1120.71l-.41-1.67c-14.27,7.14-11.24,32.69,5.48,34.65l-6.76-4.88c-6.77-7.85-6.96-18.44-.72-26.73.89-1.18,2.32-1.26,2.41-1.37Z"/>
        <path class="cls-2" d="M336.49,1146.09c-.15,5.04,7.55.77,8.45,1.68,2.03,7.91-9.64,8.64-15.21,10.14,2.29-5.04,2.22-10.8.41-16.05-.78-2.28-2.66-3.65-2.95-5.92,6.64,1.18,13.85-4.49,16.54,4.19,1.53,4.94-3.43,5.27-7.24,5.95Z"/>
        <path class="cls-2" d="M464.57,1209.49c2.96-.68,2.21,7.89,2.14,9.75-.41,10.37-3.49,25.46-7.01,35.25-.67,1.86-3.99,11.22-6.1,10.77-.71-.64-1.75-1.35-2.01-2.29-.43-1.56,5.57-14.92,6.57-18.47,1.47-5.25,2.48-10.73,3.33-16.11.49-3.14.82-18.38,3.09-18.9Z"/>
        <path class="cls-2" d="M446.36,1138.45l-2.54.49c-6.53-12.19-12.81-23.19-22.37-33.44-3.58-3.84-9.64-6.98-10.57-11.82,2.05-2.04,15.84,10.99,17.77,13.08,7.68,8.28,15.57,20.6,17.71,31.69Z"/>
        <path class="cls-2" d="M425.25,1092.82c1.93-6.85,12.24,2.85,15.23,5.49,9.28,8.22,20.25,24.46,22.47,36.76.52,2.9-2.19,3.7-3.72,1.13-.96-1.6-1.36-4.95-2.29-7.01-6.47-14.26-16.48-30.42-31.68-36.38Z"/>
        <path class="cls-2" d="M456.53,1137.63c-1.21-.21-2.69.84-3.71.67-2.21-.38-8.57-17.87-11.48-20.55l-15.24-19.84c.95-.88,7.35,4.52,8.46,5.48,10.34,8.93,17.4,21.51,21.97,34.24Z"/>
        <path class="cls-2" d="M482.32,1206.96c3.59-.96,5.28,9.09,5.92,11.82,1.16,5,2.63,12.33,2.94,17.35.09,1.51.51,5.78-1.27,6.32-5.25,1.61-3.56-11.86-3.9-14.69-.37-3.12-1.27-7.58-1.98-10.7-.44-1.94-4.36-9.4-1.71-10.11Z"/>
        <path d="M328.88,1178.21c-.57,1.73-3.19,2.25-4.73,2.46-30.44,4.1-46.12-32.33-46.42-57.41,4.56,18.46,11.62,46.52,32.07,53.31.93.31,5.54,1.64,5.96,1.64h13.1Z"/>
        <path d="M371.14,1151.15c.96,4.29.69,7.75-.23,12.03l-3.98,9.11c.95-5.19,2.97-10.45,3.32-15.77.14-2.2-2.28-5.99.9-5.36Z"/>
        <path d="M502.17,1143.13c-.38,3.2-2.31,9.14-4.65,11.41-.5-3.39,1.41-7.04,1.98-10.7.74-4.73.53-9.6,1.2-14.03.11-.75.37-2.54,1.48-2.32-.42,4.98.58,10.77,0,15.64Z"/>
        <path d="M486.95,1188.35l-2.41-.69c-11.67,15.76-36.55,14.44-44.1-4.78-9.34-23.79,17.3-47.43,38.46-30.85,12.47,9.77,11.58,22.28,8.05,36.33ZM474.28,1156.22c-3.18-5.04-12.54-4.37-17.58-2.78-9.12,2.87-12.97,10.62-13.69,19.7,3.1-2.62,3.39-7.24,5.7-10.77,5.71-8.72,16.48-9.04,25.57-6.14ZM471.75,1191.73c13.51-3.38,18.04-21.64,9.71-32.11-.08,3.85,2.01,7.33,2.16,11.39.2,5.56-1.31,10.43-4.77,14.73l-7.1,6Z"/>
        <path d="M313.66,1120.71c-.09.11-1.52.19-2.41,1.37-6.24,8.29-6.05,18.88.72,26.73l6.76,4.88c-16.72-1.95-19.75-27.51-5.48-34.65l.41,1.67Z"/>
        <path class="cls-2" d="M474.28,1156.22c-9.08-2.9-19.86-2.58-25.57,6.14-2.32,3.54-2.6,8.15-5.7,10.77.72-9.08,4.56-16.82,13.69-19.7,5.04-1.59,14.4-2.26,17.58,2.78Z"/>
        <path class="cls-2" d="M471.75,1191.73l7.1-6c3.46-4.3,4.98-9.17,4.77-14.73-.15-4.06-2.24-7.54-2.16-11.39,8.33,10.47,3.8,28.73-9.71,32.11Z"/>
      </g>
    </g>
    <g>
      <path class="cls-2" d="M435.62,825.83c-11.84,0-23.21-3.26-33.79-9.69-22.18-13.49-44.79-41.76-42-71.95.96-10.4,4.75-19.47,8.34-26.56l-41.88-23.97,2.04-16.89.02-.11c.27-1.39.98-2.42,1.5-3.17.1-.14.2-.29.29-.43,2.1-3.25,6.41-9.44,9.04-12.23,2.12-2.25,4.89-4.22,7.57-6.12,2.16-1.54,4.21-2.99,5.81-4.49l.66-.62,17.53-3.02,28.87,42.12c6.48-2.63,12.92-5.01,19.77-6.23,4.8-.85,9.48-1.29,13.91-1.29,17.77,0,33.27,6.98,47.41,21.34,13.75,13.96,22.35,29.66,24.88,45.39,2.81,17.49-2.08,34.64-14.17,49.58-14.56,18-34.9,28.33-55.81,28.33,0,0,0,0,0,0ZM388.77,703.3c.25-.32.51-.64.77-.96.45-.55.88-1.09,1.25-1.61l-22.71-29.69-5.42,7.56,26.12,24.69ZM394.27,693.58l.04-.08-22.43-32.86-.28,2.73.07.74,22.61,29.46ZM334.24,687.52l8.75-1.42c1.79-1.59,3.86-3.04,5.87-4.46,2.37-1.67,4.82-3.4,6.49-5.14,1.63-1.7,3.15-4.05,4.75-6.53,1.36-2.1,2.76-4.27,4.31-6.14l.99-9.19-8.76,1.45c-1.76,1.57-3.79,3.02-5.75,4.42-2.42,1.72-4.92,3.51-6.62,5.34-1.68,1.81-3.2,4.1-4.81,6.52-1.29,1.93-2.61,3.92-4.07,5.72l-1.15,9.43Z"/>
      <path d="M369.37,649.87l29.15,42.54c6.91-2.85,13.98-5.64,21.4-6.97,4.66-.83,9.11-1.24,13.38-1.24,17.5,0,31.97,6.93,45.28,20.45,25.47,25.87,35.17,60.49,10.51,90.98-13.77,17.02-33.27,27.21-53.47,27.21-10.8,0-21.8-2.91-32.23-9.25-22.59-13.73-43.12-41.53-40.58-69.11.93-10.12,4.64-19.15,9.35-28.01l-42.65-24.42,1.79-14.81c.19-.98.84-1.74,1.37-2.55,2.03-3.14,6.24-9.18,8.71-11.8,3.53-3.74,9.42-6.89,13.25-10.48l14.75-2.54M330.78,691.12l13.58-2.2c3.78-3.6,9.64-6.67,13.16-10.35,3.51-3.66,6.31-9.62,9.78-13.5l1.51-14.04-13.54,2.24c-3.83,3.66-9.67,6.72-13.2,10.54-3.46,3.74-6.18,9.11-9.55,13.04l-1.74,14.27M394.96,699.41l2.76-6.22-27.99-41.02-1.15,11.18.17,1.9,26.21,34.16M389.29,707.93c1.2-2.4,3.56-4.55,4.83-6.82.14-.25.33-.45.15-.75l-26.28-34.34-9.31,12.98,30.6,28.93M372.15,643.3l-3.79.65-14.75,2.54-1.77.31-1.31,1.23c-1.45,1.36-3.42,2.76-5.49,4.23-2.8,1.99-5.7,4.05-8.02,6.51-3.12,3.31-7.83,10.26-9.38,12.66-.08.12-.16.24-.25.36-.59.86-1.58,2.3-1.97,4.3l-.04.21-.03.21-1.79,14.81-.48,3.95,3.45,1.98,37.71,21.58c-3.31,6.92-6.5,15.42-7.39,25.08-2.91,31.47,20.48,60.83,43.43,74.79,11.05,6.72,22.94,10.13,35.34,10.13,21.82,0,43.01-10.73,58.14-29.44,12.64-15.63,17.75-33.59,14.8-51.95-2.63-16.35-11.52-32.61-25.7-47.02-14.73-14.96-30.94-22.24-49.55-22.24-4.6,0-9.46.45-14.43,1.34-6.32,1.13-12.24,3.17-18.12,5.5l-26.42-38.55-2.18-3.17h0ZM357.97,658.91l4.02-.67-.47,4.39c-1.43,1.82-2.7,3.79-3.94,5.71-1.52,2.36-2.97,4.59-4.4,6.09-1.47,1.54-3.69,3.1-6.05,4.77-1.84,1.3-3.72,2.63-5.46,4.09l-3.97.64.56-4.63c1.32-1.7,2.52-3.51,3.69-5.26,1.54-2.32,3-4.51,4.51-6.14,1.49-1.61,3.76-3.23,6.16-4.94,1.8-1.28,3.64-2.59,5.34-4.04h0ZM366.62,678.23l1.54-2.14,9.95,13-11.48-10.86h0Z"/>
    </g>
    <path class="cls-1" d="M368.8,651.03l-1.51,14.04c-3.47,3.88-6.27,9.83-9.78,13.5-3.52,3.68-9.37,6.75-13.16,10.35l-13.58,2.2,1.74-14.27c3.36-3.92,6.08-9.3,9.55-13.04s9.37-6.88,13.2-10.54l13.54-2.24ZM335.16,686.06c.95.03,1.9-.13,2.84-.27,1.79-.26,6.22-.77,7.66-1.33.75-.29,9.2-6.88,10.02-7.73s7.54-10.28,7.72-10.95l.8-9.92-10.07,1.79c-.8.31-9.23,6.97-10.1,7.88-2.7,2.8-4.98,7.36-7.58,10.39l-1.28,10.13Z"/>
    <path d="M398.81,691.83l-29.08-42.79-1.15,14.32-.58,2.65-9.31,12.98,30.6,28.93c1.2-2.4,3.56-4.55,4.83-6.82.07-.12.15-.23.19-.35l.03.04,4.46-8.97Z"/>
    <path class="cls-1" d="M335.16,686.06l1.28-10.13c2.6-3.03,4.89-7.59,7.58-10.39.87-.91,9.3-7.57,10.1-7.88l10.07-1.79-.8,9.92c-.17.67-6.88,10.08-7.72,10.95s-9.26,7.44-10.02,7.73c-1.44.55-5.87,1.07-7.66,1.33-.94.13-1.89.3-2.84.27ZM336.31,684.9c2.53-.59,6.49-.49,8.81-1.44.69-.28,8.41-6.18,9.04-6.86.16-.17.43-.27.35-.57l-9.32-9.12-.67-.2-7.24,9.83-.97,8.36Z"/>
    <path d="M336.31,684.9l.97-8.36,7.24-9.83.67.2,9.32,9.12c.08.3-.19.4-.35.57-.63.68-8.35,6.57-9.04,6.86-2.32.95-6.28.85-8.81,1.44Z"/>
    <path d="M257.09,621.58c6.92-.45,23.44-1.34,29.26,1.84.38.21.81.49,1.28.82,2.12-.68,3.98-2.21,4.66-5.31-.11-.15-.24-.31-.34-.45-7.25-10.61-10.57-28.04-15.75-39.94-.33-.73-.06-1.1.34-1.68,1.07-1.57,6.03-4.95,8-7.28,12.9-15.3,8.22-41.97-3.32-56.89-8.5-10.99-30.05-26.31-42.42-33.06-.77-.42-2.49-1.37-3.26-.78-1.57,9.96-3.22,20.41-3.94,30.51-1.78,24.67-3.68,54.16,23.38,65.33,3.46,1.43,12.58,2.28,14,3.87,1.54,1.72,4.14,11.57,5.33,14.54,1.69,4.23,4.26,8.22,5.61,12.59-.43.47-4.75-3.13-5.3-3.63-17.1-15.4-33.47-31.91-50.3-47.69-1.15-1.08-2.32-2.14-3.49-3.19h0c-2.04-1.95-14.85-14.55-16.77-16.61-.51-.55-3.83-4.51-3.29-4.98,12.93,1.32,10.81-6.42,7.6-15.22-1.85-5.06-4.63-9.78-7.59-14.25.02-.58,7.01-2.26,8.39-2.85,2.85-1.22,15.04-9.1,15.29-11.82.28-3.04-10.8-11.21-13.62-12.62-1.78-.89-9.06-2.86-9.38-3.91,1.48-5.18,4.87-9.48,6.4-14.67,1.22-4.17,3.93-12.35-2.17-13.35-9.24-1.51-17.39,2.08-25.11,6.58-1.21-.26-.91-6.59-1.18-8.11-1.2-6.69-5.11-14.4-10.18-18.93-8.77,3.43-15.01,11.41-17.49,20.38-1.47.95-4.4-3.66-5.91-4.94-1.79-1.52-4.54-3.61-6.6-4.65-1.98-1-12.62-4.91-13.96-3.99-2.68,6.04-3.19,13.36-2.61,19.9.15,1.73,2.13,8.26,1.66,8.95-.58.87-1.06.54-1.8.51-6.32-.25-10.54-1.14-16.98.59-1.89.51-9.35,3.31-9.38,5.16,2.67,6.57,5.44,12.25,10.95,16.89,1.57,1.32,6.94,4.06,6.94,5.64-8.56,4.49-15.06,13.24-17.83,22.41,4.86,4.41,12.38,6.24,18.78,6.42,1.94.05,10.12-1.25,10.27.3-2.99,4.42-3.89,25.71-1.14,28.66,2.66,2.86,16.12-4.77,18.99-6.86,2.38-1.73,4.93-4.82,7-6.24.56-.38.65-.92,1.66-.65.55,2.94,2.31,6.44,3.87,9.05,2.24,3.75,9.36,13.18,14.17,12,6-1.48,11.72-19.15,11.1-25.02l2.18.14c6.89,5.77,21.18,20.13,27.83,26.16,5.13,4.8,10.24,9.61,15.37,14.39,4.1,3.82,28.59,24.83,29.15,27.79.18.93.03,1.22-.93.94l-30.39-9.83c-5.69-10.1-9.86-20.82-20.39-26.8-1.24-.71-4.28-2.66-5.47-2.31-2.5.72-.51,4.91-2.11,5.24-4.09-2.61-8.36-4.41-12.71-6.48-.98-.47-1.86-1.84-2.64-2.03-1-.23-2.12.64-3.12.51-6.05-.78-18.78-6.9-19.6,2.7-3.27-.59-6.08-2.43-9.42-3.49-1.91-.61-9.33-2.68-10.72-2.4-.91.19-1.19,1.21-.95,2.13.97,3.69,14.35,6.48,17.95,7.88,1.28.5,8.26,3.33,6.45,5.14-6.82.45-8.99,1.55-15.24-1.64-6.48-3.31-17.06-11.36-24.75-10.9-6.91.41,1.61,4.87,3.9,5.92,13.09,6.01,13.82,6.31,24.86,15.53,1,.83,5.12,2.76,5.26,3.36.49,2.06-4.43,3.18-6.12,2.85-6.34-1.23-19.94-14.15-25.39-14.45-2.11-.12-3.55,1.4-1.88,3.26,2.36,2.65,11.21,7.89,14.66,9.84,1.95,1.11,10.39,4.66,10.8,5.09,1.13,1.17-.01,2.85,1.7,4.25,3.68,3.02,13.43,7.22,18.13,5.37l-.36,3.98c2.86,2.16,6.54,2.18,9.96,1.96,1.96-.12,9.13-2.08,9.89-1.9,2.02.49-.09,4.91,2.39,6.19,3.91,2.03,13.96-.06,18.09-1.74,4.61-1.86,16.4-11.18,19.87-11.11,4.32.09,15.79,4.47,20.27,6.26,5.56,2.21,17.34,7.27,21.82,10.63.43.32,4.14,3.54,1.7,3.58-.5,0-7.38-3.68-8.95-4.28-9.95-3.78-23.95-8.17-34.45-5.34-2.73.74-10.98,5.31-12.06,7.81-.72,1.66-1.62,8.73-1.57,10.65.47,15.69,18.33,29.53,31.55,35.18,2.15.92,12.23,5.2,13.19,1.94.64-2.17-15.22-27.8-13.79-33.29.33-.52,10.61-1.96,12.17-2.06ZM273.99,571.66c-1.67.46-2.39-1-3-2.4-1.47-3.39-4.84-16.68-4.72-20.09.19-5.16,4.25-8.89,6.48-13.24,1.22-2.36,3.66-6-.77-6.1-2.76,1.4-4.62,8.05-6.99,10.27-.57.54-.79,1.18-1.65.38-1.69-.9-4.05-8.7-3.92-10.59.25-3.64,7.05-10.69,5.85-14.5-.46-.85-.86-1.46-1.92-.78-1.54.98-4.31,8.73-6.27,8.29-1.72-.96-5.08-18.54-8.28-15.22l3.25,17.46c-.82,2.94-7.22-1.12-8.96-1.5-.97-.22-1.11-.06-.93.94.69,3.69,9.18,4.88,11.57,8.3,1.83,2.62,1.87,6.79,2.34,9.9-1.5,1.47-11.64-5.14-12.52.24,2.3,3.4,6.84,3.12,10.46,4.81,9.78,4.56,9.91,14.73,13.3,23.72-.39,1.76-4.57.39-5.94.04-21.15-5.32-26.07-27.97-25.18-47.04l3.34-36.72c.64-.69,4.7,2.06,5.64,2.63,22.89,13.92,51.16,37.48,39.39,67.89-1.31,3.39-7.1,12.37-10.58,13.32ZM210.39,479.23c2.03,1.24,6.13,3.59,5.49,6.14-1.34,5.31-14.54,10.59-19.65,7.69-.82-2.97.6-6.13.62-8.84.02-1.9-1.87-7.42-.1-8.65,2.77-1.92,10.95,2.02,13.63,3.66ZM186.22,449.8c2.58-1.12,15.49-5.47,17.11-2.9.29,4.59-1.64,9.58-3.88,13.49-.87,1.52-5.96,8.99-7.94,7.61-1.25-5.51-5.28-11.02-10.52-13.32-1.3-2.23,3.74-4.23,5.23-4.88ZM163.68,431.23c1.04-1.13,3.13-3.85,4.67-3.34,1.64.9,5.9,10.15,6.31,12.27,2.8,14.63-3.59,8.41-12.03,7.4-2.28-.27-4.59,0-6.87-.09.48-5.91,4-11.95,7.93-16.24ZM128.76,435.03c3.14-3.47,20.6,8.61,19.43,14.43-.71,1.37-6.7,2.56-8.57,3.39-3.12,1.39-5.29,3.78-8.37,4.92-3.36-3.63-5.49-19.42-2.48-22.75ZM108.07,472.97c-7.76-7.35-8.6-10.8,3.66-11.59,2.21-.14,12.61.25,13.95,1.26,2.33,1.74-1.98,7.41-2.88,9.82-1.06,2.84-1.78,5.77-2.15,8.78-1.2,1.01-11.07-6.84-12.58-8.27ZM103.06,505.75c-.75-1.17,3.09-6.19,4.02-7.31,2.13-2.59,8.33-8.32,11.4-9.15.83-.22,1.37-.27,1.84.55l6.02,17.22c-1.95,3.17-19.96,1.61-23.28-1.32ZM139.14,531.83c-1.77,1.23-8.6,5.42-10.45,4.28-3.1-1.93-.91-19.33,2.56-22.14,1.2-.62,8.12,4.34,10,5.27,1.85.91,4.46,1.09,6.26,2.36,1.54,2.13-6.61,9-8.38,10.23ZM170.21,541.05c-.72,1-1.27,2.08-2.74,1.69-4.12-3.59-8.68-8.32-10.2-13.7-2.5-8.88,2.37-5.89,8.57-6.93,2.41-.4,5.34-2.15,6.96-2.38.54-.08,1.01-.14,1.48.2,4.45,2.26-1.75,17.89-4.07,21.11ZM158.34,517.45c-17.73,0-32.1-14.37-32.1-32.1s14.37-32.1,32.1-32.1,32.1,14.37,32.1,32.1-14.37,32.1-32.1,32.1ZM182.56,516.99c-1.4-2.97,1.95-3.59,3.64-5.62,1.52-1.83,4.65-9.98,6.28-10.09,3.02-.22,11.69,16.53,12.15,19.52.12.8.25,1.33-.53,1.86-4.51,1.06-19.53-1.38-21.55-5.66ZM199.15,575.22c-8.23-1.18-15.84-8.11-16.55-16.55,1-1.11,19.62,11.25,16.55,16.55ZM182.6,568.6c-7.31-.53-17.33-4.89-19.19-12.57,9.98-1.44,15.36,4.19,19.19,12.57ZM155.45,568.61c8-1.99,19.26.3,24.5,6.94-.21.89-3.37,1.67-4.33,1.69-2.41.06-10.91-.75-13.04-1.52-1.44-.53-8.64-5.34-7.12-7.1ZM158.07,587.51c-6.24-3.4-2.11-6.33,3-6.63,3.88-.23,8.69.66,12.6,1.03,2.05.19,3.57-1.41,4.95.93-6.91,5.36-11.77,9.45-20.55,4.67ZM176.97,594.49c-1.86-.06-6.08-1.5-3.89-3.43,4.79-4.22,14.03-2.87,20.11-3.91-1.53,4.84-11.74,7.48-16.22,7.34ZM184.92,581.85l-.99-1.65c3.38-4.95,8.3-2.37,12.25.32l-.67,1.32h-10.59ZM211.53,593.89c-2.44,1.65-16.03,7.38-17,2.83-.22-1.02.84-1.4,1.51-1.78,1.89-1.08,15.95-4.07,17.02-3.17.28,1.36-.67,1.54-1.52,2.11ZM203.14,587.47c.05-.69,3.56-2.69,4.45-2.86,2.07-.38,3.98,1.04,2.17,2.21-1.45.26-2.93.68-4.37.94-.4.07-2.36,1.25-2.25-.29ZM208.2,577.1c-2.24-1.59-6.27-9.07-6.79-11.78-.17-.89-.48-2.43.73-2.67,2.62-.53,10.73,13.04,12.58,15.22,1.84,3.55-5.21.16-6.52-.77ZM240.56,628.17c2.17,7.23,5.95,13.96,8.9,20.89-.2,3.26-10.19-2.95-11.45-3.76-8.66-5.57-18.69-17.27-19.02-28.01-.21-6.72,6.83-11.1,12.93-11.62,12.81-1.08,26.75,5.69,38.74,9.32v1.96c-4.6-1.1-8.56-.12-12.87.03-3.57.12-16.71-.43-18.57,2.61-.9,2.69.55,5.91,1.36,8.59Z"/>
    <path d="M688.54,1023.98c6.92-.45,23.44-1.34,29.26,1.84.38.21.81.49,1.28.82,2.12-.68,3.98-2.21,4.66-5.31-.11-.15-.24-.31-.34-.45-7.25-10.61-10.57-28.04-15.75-39.94-.33-.73-.06-1.1.34-1.68,1.07-1.57,6.03-4.95,8-7.28,12.9-15.3,8.22-41.97-3.32-56.89-8.5-10.99-30.05-26.31-42.42-33.06-.77-.42-2.49-1.37-3.26-.78-1.57,9.96-3.22,20.41-3.94,30.51-1.78,24.67-3.68,54.16,23.38,65.33,3.46,1.43,12.58,2.28,14,3.87,1.54,1.72,4.14,11.57,5.33,14.54,1.69,4.23,4.26,8.22,5.61,12.59-.43.47-4.75-3.13-5.3-3.63-17.1-15.4-33.47-31.91-50.3-47.69-1.15-1.08-2.32-2.14-3.49-3.19h0c-2.04-1.95-14.85-14.55-16.77-16.61-.51-.55-3.83-4.51-3.29-4.98,12.93,1.32,10.81-6.42,7.6-15.22-1.85-5.06-4.63-9.78-7.59-14.25.02-.58,7.01-2.26,8.39-2.85,2.85-1.22,15.04-9.1,15.29-11.82.28-3.04-10.8-11.21-13.62-12.62-1.78-.89-9.06-2.86-9.38-3.91,1.48-5.18,4.87-9.48,6.4-14.67,1.22-4.17,3.93-12.35-2.17-13.35-9.24-1.51-17.39,2.08-25.11,6.58-1.21-.26-.91-6.59-1.18-8.11-1.2-6.69-5.11-14.4-10.18-18.93-8.77,3.43-15.01,11.41-17.49,20.38-1.47.95-4.4-3.66-5.91-4.94-1.79-1.52-4.54-3.61-6.6-4.65-1.98-1-12.62-4.91-13.96-3.99-2.68,6.04-3.19,13.36-2.61,19.9.15,1.73,2.13,8.26,1.66,8.95-.58.87-1.06.54-1.8.51-6.32-.25-10.54-1.14-16.98.59-1.89.51-9.35,3.31-9.38,5.16,2.67,6.57,5.44,12.25,10.95,16.89,1.57,1.32,6.94,4.06,6.94,5.64-8.56,4.49-15.06,13.24-17.83,22.41,4.86,4.41,12.38,6.24,18.78,6.42,1.94.05,10.12-1.25,10.27.3-2.99,4.42-3.89,25.71-1.14,28.66,2.66,2.86,16.12-4.77,18.99-6.86,2.38-1.73,4.93-4.82,7-6.24.56-.38.65-.92,1.66-.65.55,2.94,2.31,6.44,3.87,9.05,2.24,3.75,9.36,13.18,14.17,12,6-1.48,11.72-19.15,11.1-25.02l2.18.14c6.89,5.77,21.18,20.13,27.83,26.16,5.13,4.8,10.24,9.61,15.37,14.39,4.1,3.82,28.59,24.83,29.15,27.79.18.93.03,1.22-.93.94l-30.39-9.83c-5.69-10.1-9.86-20.82-20.39-26.8-1.24-.71-4.28-2.66-5.47-2.31-2.5.72-.51,4.91-2.11,5.24-4.09-2.61-8.36-4.41-12.71-6.48-.98-.47-1.86-1.84-2.64-2.03-1-.23-2.12.64-3.12.51-6.05-.78-18.78-6.9-19.6,2.7-3.27-.59-6.08-2.43-9.42-3.49-1.91-.61-9.33-2.68-10.72-2.4-.91.19-1.19,1.21-.95,2.13.97,3.69,14.35,6.48,17.95,7.88,1.28.5,8.26,3.33,6.45,5.14-6.82.45-8.99,1.55-15.24-1.64-6.48-3.31-17.06-11.36-24.75-10.9-6.91.41,1.61,4.87,3.9,5.92,13.09,6.01,13.82,6.31,24.86,15.53,1,.83,5.12,2.76,5.26,3.36.49,2.06-4.43,3.18-6.12,2.85-6.34-1.23-19.94-14.15-25.39-14.45-2.11-.12-3.55,1.4-1.88,3.26,2.36,2.65,11.21,7.89,14.66,9.84,1.95,1.11,10.39,4.66,10.8,5.09,1.13,1.17-.01,2.85,1.7,4.25,3.68,3.02,13.43,7.22,18.13,5.37l-.36,3.98c2.86,2.16,6.54,2.18,9.96,1.96,1.96-.12,9.13-2.08,9.89-1.9,2.02.49-.09,4.91,2.39,6.19,3.91,2.03,13.96-.06,18.09-1.74,4.61-1.86,16.4-11.18,19.87-11.11,4.32.09,15.79,4.47,20.27,6.26,5.56,2.21,17.34,7.27,21.82,10.63.43.32,4.14,3.54,1.7,3.58-.5,0-7.38-3.68-8.95-4.28-9.95-3.78-23.95-8.17-34.45-5.34-2.73.74-10.98,5.31-12.06,7.81-.72,1.66-1.62,8.73-1.57,10.65.47,15.69,18.33,29.53,31.55,35.18,2.15.92,12.23,5.2,13.19,1.94.64-2.17-15.22-27.8-13.79-33.29.33-.52,10.61-1.96,12.17-2.06ZM705.43,974.06c-1.67.46-2.39-1-3-2.4-1.47-3.39-4.84-16.68-4.72-20.09.19-5.16,4.25-8.89,6.48-13.24,1.22-2.36,3.66-6-.77-6.1-2.76,1.4-4.62,8.05-6.99,10.27-.57.54-.79,1.18-1.65.38-1.69-.9-4.05-8.7-3.92-10.59.25-3.64,7.05-10.69,5.85-14.5-.46-.85-.86-1.46-1.92-.78-1.54.98-4.31,8.73-6.27,8.29-1.72-.96-5.08-18.54-8.28-15.22l3.25,17.46c-.82,2.94-7.22-1.12-8.96-1.5-.97-.22-1.11-.06-.93.94.69,3.69,9.18,4.88,11.57,8.3,1.83,2.62,1.87,6.79,2.34,9.9-1.5,1.47-11.64-5.14-12.52.24,2.3,3.4,6.84,3.12,10.46,4.81,9.78,4.56,9.91,14.73,13.3,23.72-.39,1.76-4.57.39-5.94.04-21.15-5.32-26.07-27.97-25.18-47.04l3.34-36.72c.64-.69,4.7,2.06,5.64,2.63,22.89,13.92,51.16,37.48,39.39,67.89-1.31,3.39-7.1,12.37-10.58,13.32ZM641.84,881.63c2.03,1.24,6.13,3.59,5.49,6.14-1.34,5.31-14.54,10.59-19.65,7.69-.82-2.97.6-6.13.62-8.84.02-1.9-1.87-7.42-.1-8.65,2.77-1.92,10.95,2.02,13.63,3.66ZM617.66,852.2c2.58-1.12,15.49-5.47,17.11-2.9.29,4.59-1.64,9.58-3.88,13.49-.87,1.52-5.96,8.99-7.94,7.61-1.25-5.51-5.28-11.02-10.52-13.32-1.3-2.23,3.74-4.23,5.23-4.88ZM595.12,833.63c1.04-1.13,3.13-3.85,4.67-3.34,1.64.9,5.9,10.15,6.31,12.27,2.8,14.63-3.59,8.41-12.03,7.4-2.28-.27-4.59,0-6.87-.09.48-5.91,4-11.95,7.93-16.24ZM560.2,837.43c3.14-3.47,20.6,8.61,19.43,14.43-.71,1.37-6.7,2.56-8.57,3.39-3.12,1.39-5.29,3.78-8.37,4.92-3.36-3.63-5.49-19.42-2.48-22.75ZM539.51,875.37c-7.76-7.35-8.6-10.8,3.66-11.59,2.21-.14,12.61.25,13.95,1.26,2.33,1.74-1.98,7.41-2.88,9.82-1.06,2.84-1.78,5.77-2.15,8.78-1.2,1.01-11.07-6.84-12.58-8.27ZM534.51,908.15c-.75-1.17,3.09-6.19,4.02-7.31,2.13-2.59,8.33-8.32,11.4-9.15.83-.22,1.37-.27,1.84.55l6.02,17.22c-1.95,3.17-19.96,1.61-23.28-1.32ZM570.58,934.23c-1.77,1.23-8.6,5.42-10.45,4.28-3.1-1.93-.91-19.33,2.56-22.14,1.2-.62,8.12,4.34,10,5.27,1.85.91,4.46,1.09,6.26,2.36,1.54,2.13-6.61,9-8.38,10.23ZM601.66,943.45c-.72,1-1.27,2.08-2.74,1.69-4.12-3.59-8.68-8.32-10.2-13.7-2.5-8.88,2.37-5.89,8.57-6.93,2.41-.4,5.34-2.15,6.96-2.38.54-.08,1.01-.14,1.48.2,4.45,2.26-1.75,17.89-4.07,21.11ZM589.79,919.85c-17.73,0-32.1-14.37-32.1-32.1s14.37-32.1,32.1-32.1,32.1,14.37,32.1,32.1-14.37,32.1-32.1,32.1ZM614.01,919.39c-1.4-2.97,1.95-3.59,3.64-5.62,1.52-1.83,4.65-9.98,6.28-10.09,3.02-.22,11.69,16.53,12.15,19.52.12.8.25,1.33-.53,1.86-4.51,1.06-19.53-1.38-21.55-5.66ZM630.6,977.62c-8.23-1.18-15.84-8.11-16.55-16.55,1-1.11,19.62,11.25,16.55,16.55ZM614.04,971c-7.31-.53-17.33-4.89-19.19-12.57,9.98-1.44,15.36,4.19,19.19,12.57ZM586.9,971.01c8-1.99,19.26.3,24.5,6.94-.21.89-3.37,1.67-4.33,1.69-2.41.06-10.91-.75-13.04-1.52-1.44-.53-8.64-5.34-7.12-7.1ZM589.52,989.91c-6.24-3.4-2.11-6.33,3-6.63,3.88-.23,8.69.66,12.6,1.03,2.05.19,3.57-1.41,4.95.93-6.91,5.36-11.77,9.45-20.55,4.67ZM608.42,996.88c-1.86-.06-6.08-1.5-3.89-3.43,4.79-4.22,14.03-2.87,20.11-3.91-1.53,4.84-11.74,7.48-16.22,7.34ZM616.36,984.25l-.99-1.65c3.38-4.95,8.3-2.37,12.25.32l-.67,1.32h-10.59ZM642.98,996.29c-2.44,1.65-16.03,7.38-17,2.83-.22-1.02.84-1.4,1.51-1.78,1.89-1.08,15.95-4.07,17.02-3.17.28,1.36-.67,1.54-1.52,2.11ZM634.58,989.87c.05-.69,3.56-2.69,4.45-2.86,2.07-.38,3.98,1.04,2.17,2.21-1.45.26-2.93.68-4.37.94-.4.07-2.36,1.25-2.25-.29ZM639.65,979.5c-2.24-1.59-6.27-9.07-6.79-11.78-.17-.89-.48-2.43.73-2.67,2.62-.53,10.73,13.04,12.58,15.22,1.84,3.55-5.21.16-6.52-.77ZM672.01,1030.57c2.17,7.23,5.95,13.96,8.9,20.89-.2,3.26-10.19-2.95-11.45-3.76-8.66-5.57-18.69-17.27-19.02-28.01-.21-6.72,6.83-11.1,12.93-11.62,12.81-1.08,26.75,5.69,38.74,9.32v1.96c-4.6-1.1-8.56-.12-12.87.03-3.57.12-16.71-.43-18.57,2.61-.9,2.69.55,5.91,1.36,8.59Z"/>
    <g>
      <path d="M638.94,807.36l-.21-.1c-2.46-1.19-1.76-3.41-1.42-4.47,1.14-3.6,3.89-7.67,6.55-11.61,2.48-3.67,5.04-7.46,6.24-10.77l-.03-54.86.4-24.44c-.43-16.01-.38-32.31-.33-48.07.02-7.15.05-14.31.03-21.47v-.36s30.08-36.5,30.08-36.5l.46-1.29.19-14.1c.47-34.39.96-69.96,1.6-104.95,0-.54.12-1.03.23-1.47l-17.74-6.41-.05-.03c-.68-.35-1.18-.93-1.41-1.65-.25-.78-.17-1.66.23-2.43l.08-.15,73.28-70.57c.77-.77,1.75-1.22,2.68-1.22.62,0,1.22.2,1.73.57l.05.04.05.05c7.84,7.53,15.77,15.25,23.43,22.71,7.23,7.04,14.7,14.32,22.09,21.43,3.6,3.46,7.34,6.92,10.97,10.26,4.46,4.12,9.08,8.37,13.47,12.69.16.16.37.35.62.57,1.93,1.77,3.83,3.66,3.86,5.5.01.7-.25,1.33-.75,1.83l-.16.16-18.4,6.39s-.01.07-.02.11c-.22,1.16-.11,3.92-.04,5.75.02.51.04.97.05,1.35.7,27.27,1.24,55.05,1.75,81.91l.1,5.18c.05,2.76.04,5.56.03,8.26-.02,4.81-.03,9.79.31,14.67.08,1.14.09,1.96.11,2.62q.03,2.02,2.25,4.84c3.79,4.82,7.86,9.58,11.8,14.18,5.36,6.25,10.9,12.72,15.82,19.47l.19.26.07,148.78c1.59,3.87,4.09,7.74,6.51,11.49,2.27,3.53,4.63,7.18,6.23,10.83.77,1.76,1.21,3.34-1.27,4.87l-.24.15h-201.45ZM834.13,801.63l-9.88-17.64c-1.84-.04-3.83-.06-6.2-.06-1.71,0-3.42,0-5.13.02-1.71,0-3.43.02-5.15.02h-.03c-.91,0-1.82,0-2.73,0-.56,0-1.07-.11-1.57-.21-.45-.09-.88-.18-1.31-.19h-.27c-1.24,0-2.52.08-3.76.15-1.26.08-2.56.15-3.84.15-.78,0-1.5-.03-2.19-.09l5.67,17.85h36.37ZM791.48,801.63v-1.3h-103.67v1.3h103.67ZM681.54,801.63l6.06-17.68h-32.12c-3.75,5.9-7.36,11.71-10.41,17.68h36.47ZM789.04,794.7c-.04-.46-.31-1.2-.49-1.69-.13-.35-.26-.71-.37-1.07l-96.98.02c-.32.47-.66,1.82-.8,2.74h98.64ZM786.1,785.95l-.48-1.96-.11-.05-91.78.22-.5,1.8h92.87ZM823.17,777.57v-142.35h-5.3c-.03,2.93,0,5.89.02,8.77.03,3.32.06,6.75,0,10.13-.16,10.45-.33,20.93-.51,31.4-.22,12.74-.43,25.48-.61,38.19-.03,2.4,0,4.85.01,7.22.04,4.17.08,8.48-.18,12.71l-2-.02c-.46-10.24-.46-20.64-.47-30.71,0-5.06,0-10.3-.06-15.46,0-.32-.08-.68-.17-1.05-.1-.44-.22-.93-.22-1.47-.12-10-.14-20.17-.17-30-.03-9.74-.05-19.8-.17-29.72h-147.41l-1.26,105.09h-2l-1.26-105.09h-5.3l.36,142.35h41.36v-64.43c0-12,12.53-24.79,23.74-28.22,5-1.53,14.13-1.76,19.12-1.76,3.83,0,7.65.13,10.5.37,16.58,1.36,30.61,16.75,30.64,33.6l-.02,60.44h41.36ZM775.81,777.57v-63.7c0-.63-.87-3.88-1.31-5.27-3.58-11.25-14.45-19.17-26.57-19.43v88.39h27.88ZM741.92,777.57v-88.4h-4.56v88.4h4.56ZM731.72,777.57v-88.41c-13.68.12-25.35,9.91-27.84,23.38-.01,7.31-.19,14.79-.37,22.02-.31,12.61-.62,25.65-.05,38.33.03.63.12,1.26.21,1.93.12.89.25,1.8.24,2.74h27.81ZM819.86,629.22l-24.67-29.83c-17.85,7.03-36.6,10.59-55.74,10.59-10.57,0-21.14-1.12-31.43-3.32-7.55-1.62-15.18-4.01-23.3-7.31l-25.27,29.87h4.13l18.83-21.53,1.57,1.24-14.53,20.29h140.71l-14.48-19.92,1.57-1.23,17.92,21.15h4.7ZM699.1,598.2c13.17,3.91,26.87,5.89,40.73,5.89s27.68-2.02,40.67-6.01l1.14-81.6h2s1.43,79.88,1.43,79.88l7.53-2.72-1.84-118.92c-2.29.52-4.57,1.15-6.79,1.77-2.26.63-4.6,1.28-6.94,1.8-11.96,2.7-24.49,4.06-37.24,4.06s-26.46-1.49-39-4.43c-1.86-.44-3.7-.97-5.49-1.48-2.21-.64-4.49-1.29-6.77-1.76l-1.73,119.07,7.79,2.95,1.25-83.51,2-.04c.43,8.5.45,17.13.46,25.47,0,4.27.01,8.69.08,13.04.08,5.93.25,12.02.42,17.92.12,4.48.25,8.96.34,13.39.04,1.79-.04,3.73-.12,5.8-.12,3.19-.25,6.49.07,9.08.01.1.02.2.03.3,0,.02,0,.03,0,.05ZM676.57,464.21c8.58,2.98,17.46,6.07,26.49,8.11,12.08,2.74,24.42,4.13,36.68,4.13,15.19,0,30.39-2.12,45.17-6.31,4.2-1.19,8.4-2.67,12.46-4.1,3.12-1.1,6.34-2.23,9.58-3.24l-53.89-51.99,28.96,45.35-1.67,1.11-40.53-58.58-39.62,57.13-1.67-1.1,27.93-44.26-53.82,52.39c1.31.45,2.62.91,3.93,1.36Z"/>
      <path d="M739.8,391.43c.39,0,.78.11,1.14.38,15.24,14.64,30.29,29.49,45.52,44.13,8.04,7.73,16.48,15.13,24.43,22.94,1.25,1.23,5.58,4.65,3.73,6.49l-18.25,6.34c-.46.14-.53.42-.61.85-.3,1.59-.06,5.46-.01,7.31.74,29,1.29,58.09,1.85,87.09.15,7.7-.19,15.32.35,22.98.34,4.9-.57,4.02,2.56,8.01,8.94,11.38,19.09,21.94,27.61,33.62l.07,148.65c3.11,7.68,9.53,15.03,12.82,22.53.74,1.69.89,2.53-.88,3.62h-200.94c-1.52-.74-1.36-1.84-.9-3.27,2.16-6.81,10.35-15.44,12.84-22.51l-.03-55.04.4-24.42c-.63-23.2-.24-46.35-.31-69.56l29.97-36.36.57-1.62c.55-39.8,1.06-79.47,1.8-119.22.01-.74.27-1.41.41-2.13l-18.51-6.7c-1.04-.53-1.25-1.75-.75-2.73l73.16-70.46c.54-.55,1.27-.94,1.99-.94M699.38,455.25l32.43-51.39-61.03,59.41c10.6,3.62,21.09,7.55,32.06,10.03,12.22,2.77,24.58,4.16,36.91,4.16,15.28,0,30.52-2.12,45.44-6.35,8.01-2.27,15.71-5.47,23.68-7.84l-61.21-59.05,33.52,52.49-41.35-59.77-40.45,58.31M739.79,481.35c-13.13,0-26.26-1.47-38.77-4.4-4.52-1.06-8.89-2.67-13.47-3.47l-1.76,120.96,9.77,3.7,1.28-84.93c.65,12.82.35,25.63.53,38.47.15,10.37.55,20.95.76,31.32.09,4.59-.56,10.66-.04,14.98.05.4-.02.81.38,1.08,13.36,4,27.37,6.03,41.37,6.03s28.23-2.07,41.66-6.27l1.15-82.33,1.46,81.28,9.52-3.44-1.87-120.85c-5.04,1.04-9.91,2.7-14.93,3.83-11.96,2.7-24.49,4.04-37.02,4.04M657.3,630.22h6.74l19.13-21.87-15.66,21.87h143.38c.1,0,.42.39.76.39.05,0,.1,0,.15-.03l-.19-1.08-15.11-20.79,18.21,21.51h7.29l-26.48-32.03c-17.88,7.14-36.92,10.79-56.04,10.79-10.44,0-20.91-1.09-31.22-3.3-8.16-1.75-16.11-4.37-23.81-7.54l-27.13,32.07M815.61,743.58c-.69-15.36-.35-30.73-.53-46.13-.01-.86-.38-1.66-.39-2.52-.24-20.23-.1-40.48-.35-60.71h-149.39l-1.28,106.08-1.28-106.08h-7.29l.36,144.35h42.81l.55-.55v-64.88c0-11.56,12.5-24.04,23.03-27.26,4.17-1.28,11.9-1.71,18.83-1.71,4.03,0,7.78.15,10.41.36,16.27,1.33,29.7,16.35,29.72,32.6l-.02,61.44h42.81l.55-.55v-143.8h-7.29c-.09,6.62.11,13.26.02,19.88-.35,23.17-.8,46.44-1.12,69.59-.09,6.62.25,13.28-.17,19.88M702.84,778.57h29.33l.55-.55v-89.85c-.25,0-.5,0-.74,0-14.22,0-26.55,10.28-29.1,24.29-.03,20.04-1.32,40.44-.42,60.49.08,1.86.65,3.7.38,5.63M746.93,778.57h29.88v-64.7c0-.88-1.01-4.5-1.35-5.57-3.81-12-15.61-20.13-28.14-20.13-.13,0-.26,0-.39,0v90.4M736.36,778.57h6.56v-90.4h-6.56v90.4M794.27,782.87c-1.22,0-2.43-.07-3.62-.29l6.37,20.05h38.8l-10.99-19.62c-2.26-.06-4.53-.07-6.79-.07-3.42,0-6.84.04-10.26.04-.92,0-1.84,0-2.76,0-.95,0-1.84-.39-2.88-.4-.09,0-.18,0-.27,0-2.53,0-5.09.3-7.6.3M691.91,786.96h95.46l-.9-3.65-.73-.36-92.78.22-1.05,3.79M689,782.95h-34.07c-4.06,6.39-8.14,12.9-11.48,19.68h38.8l6.74-19.68M691,790.96s-.02,0-.03,0c-1.08,0-1.81,4.53-1.6,4.74h100.38c.94-1.11-.62-3.33-.76-4.76l-97.99.02M686.81,802.63h105.67v-3.3h-105.67v3.3M739.8,389.43c-1.2,0-2.44.56-3.4,1.52l-73.13,70.43-.24.23-.15.29c-.52,1-.62,2.16-.29,3.19.31.97.99,1.77,1.91,2.23l.11.06.12.04,16.86,6.1c-.04.25-.07.52-.07.81-.65,34.91-1.13,70.38-1.6,104.68l-.19,14.21-.34.97-29.74,36.09-.46.56v.72c.02,7.15,0,14.42-.02,21.44-.05,15.76-.1,32.06.33,48.12l-.4,24.38.02,54.72c-1.19,3.16-3.67,6.84-6.07,10.39-2.7,4-5.49,8.13-6.68,11.86-.32,1.02-1.3,4.11,1.94,5.67l.41.2h201.4s.57,0,.57,0l.48-.3c3.43-2.11,2.28-4.72,1.66-6.13-1.64-3.72-4.01-7.41-6.31-10.97-2.35-3.65-4.79-7.43-6.35-11.15l-.07-148.26v-.65s-.38-.53-.38-.53c-4.95-6.78-10.5-13.26-15.87-19.53-3.94-4.59-8.01-9.34-11.78-14.14q-2.01-2.55-2.03-4.24c-.01-.64-.03-1.51-.11-2.67-.34-4.85-.32-9.81-.31-14.6,0-2.71.02-5.5-.03-8.28l-.1-5c-.52-26.92-1.05-54.76-1.76-82.1,0-.38-.03-.85-.05-1.36-.06-1.47-.15-3.82-.03-5.07l17.61-6.12.43-.15.32-.32c.7-.7,1.06-1.58,1.04-2.56-.04-2.24-2.09-4.3-4.19-6.22-.23-.21-.44-.4-.59-.55-4.41-4.33-9.02-8.59-13.49-12.71-3.62-3.34-7.36-6.79-10.96-10.25-7.39-7.11-14.87-14.39-22.1-21.43-7.66-7.46-15.58-15.17-23.42-22.7l-.09-.09-.11-.08c-.68-.5-1.48-.77-2.32-.77h0ZM701.02,456.39l38.8-55.94,39.71,57.4,3.33-2.21-24.4-38.21,46.59,44.94c-2.71.88-5.39,1.82-8.01,2.74-4.05,1.42-8.23,2.9-12.4,4.08-14.69,4.16-29.8,6.27-44.9,6.27-12.19,0-24.46-1.38-36.46-4.11-8.97-2.03-17.82-5.11-26.38-8.08-.8-.28-1.6-.56-2.4-.83l46.61-45.37-23.43,37.12,3.33,2.21h0ZM687.8,593.06l1.71-117.14c1.82.42,3.63.94,5.51,1.48,1.8.52,3.66,1.05,5.54,1.49,12.62,2.96,25.82,4.46,39.23,4.46s25.43-1.38,37.46-4.09c2.36-.53,4.71-1.18,6.98-1.82,1.82-.51,3.68-1.02,5.55-1.48l1.81,116.97-5.55,2.01-1.41-78.49h-4s-1.13,80.88-1.13,80.88c-12.69,3.82-26.03,5.76-39.68,5.76s-26.92-1.9-39.8-5.65c-.26-2.47-.15-5.6-.03-8.63.08-2.08.15-4.04.12-5.85-.09-4.45-.22-9.01-.34-13.43-.16-5.88-.33-11.97-.42-17.88-.06-4.34-.07-8.76-.08-13.03-.01-8.36-.02-17-.46-25.52l-4,.07-1.23,82.08-5.8-2.2h0ZM661.61,628.22l23.41-27.67c7.93,3.18,15.4,5.51,22.8,7.09,10.36,2.22,21,3.34,31.64,3.34,19.02,0,37.66-3.5,55.43-10.4l22.85,27.64h-2.11l-17.62-20.8-3.14,2.47,13.32,18.33h-136.8l13.4-18.71-3.13-2.48-18.53,21.19h-1.52ZM818.87,636.23h3.31v140.35h-39.36l.02-59.44c-.02-17.35-14.47-33.19-31.56-34.59-2.87-.24-6.72-.37-10.58-.37-5.05,0-14.29.23-19.42,1.8-11.54,3.53-24.45,16.75-24.45,29.17v63.43h-39.36l-.35-140.35h3.31l1.25,104.1h4l1.25-104.1h145.44c.1,9.59.13,19.32.16,28.74.03,9.83.05,19.99.17,29.99,0,.65.14,1.23.25,1.69.07.32.14.62.15.83.06,5.14.06,10.38.06,15.43,0,10.08,0,20.5.47,30.76l3.99.04c.27-4.28.23-8.6.19-12.79-.02-2.36-.05-4.81-.01-7.19.18-12.7.4-25.64.61-38.16.18-10.48.36-20.97.51-31.43.05-3.39.02-6.82,0-10.14-.02-2.55-.04-5.17-.03-7.77h0ZM738.36,690.17h2.56v86.4h-2.56v-86.4h0ZM704.88,712.63c2.38-12.62,13.11-21.87,25.84-22.44v86.38h-25.84c-.05-.66-.14-1.29-.22-1.88-.09-.65-.18-1.26-.2-1.84-.57-12.65-.25-25.67.05-38.27.17-7.21.36-14.66.37-21.95h0ZM748.93,776.57v-86.35c11.29.66,21.27,8.16,24.62,18.69.44,1.37,1.22,4.36,1.26,4.99v62.67h-25.88ZM794.27,784.87c1.31,0,2.63-.08,3.9-.16,1.28-.08,2.49-.15,3.7-.15h.26c.34,0,.7.08,1.12.17.52.11,1.1.23,1.76.23.93,0,1.85,0,2.78,0,1.71,0,3.43,0,5.14-.02,1.71,0,3.41-.02,5.12-.02,2.12,0,3.93.02,5.61.05l8.76,15.65h-33.93l-5.01-15.77c.26,0,.52.01.79.01h0ZM780.03,784.96h4.79s0,0,0,0h-4.79ZM656.03,784.95h30.17l-5.37,15.68h-34.11c2.78-5.28,5.99-10.45,9.31-15.68h0ZM691.85,792.96l95.61-.02c.05.14.1.28.15.42.04.1.08.22.13.34h-96.11c.07-.27.14-.53.22-.74h0Z"/>
    </g>
    <path class="cls-2" d="M662.4,634.23l1.28,106.08,1.28-106.08h149.39c.24,20.23.11,40.47.35,60.71.01.86.38,1.66.39,2.52.18,15.4-.16,30.76.53,46.13.42-6.61.07-13.26.17-19.88.32-23.15.78-46.42,1.12-69.59.1-6.62-.1-13.26-.02-19.88h7.29v143.8l-.55.55h-42.81l.02-61.44c-.02-16.25-13.45-31.27-29.72-32.6-7.17-.59-22.65-.67-29.25,1.35-10.54,3.22-23.03,15.7-23.03,27.26v64.88l-.55.55h-42.81l-.36-144.35h7.29ZM698.47,693.64v-36.27c0-.3-1.24-3.06-1.53-3.57-4.37-7.76-15.99-8-20.39-.13-.45.8-1.76,3.72-1.76,4.43v35.18l23.68.36ZM780.81,658.47v34.63c0,.2.62.58.92.57l22.76-.02c.41-4.79.43-9.6.38-14.42s-.37-10.19-.4-15.31c0-2.03.42-3.88-.01-6.15-2.68-14.09-22.11-12.32-23.65.7Z"/>
    <g>
      <path d="M780.81,658.47c1.54-13.02,20.98-14.79,23.65-.7.43,2.27,0,4.12.01,6.15.02,5.11.34,10.25.4,15.31s.03,9.63-.38,14.42l-22.76.02c-.3.02-.92-.37-.92-.57v-34.63ZM801.22,690v-31.53c0-.25-.7-1.98-.89-2.39-2.91-6.21-11.69-6.24-14.84-.23-.19.37-1.03,2.09-1.03,2.25v31.89h16.76Z"/>
      <path d="M801.22,690h-16.76v-31.89c0-.17.83-1.89,1.03-2.25,3.15-6.01,11.93-5.98,14.84.23.19.41.89,2.14.89,2.39v31.53Z"/>
    </g>
    <path class="cls-2" d="M821.99,630.22h-7.29l-18.21-21.51,15.11,20.79.19,1.08c-.4.14-.8-.36-.91-.36h-143.38l15.66-21.87-19.13,21.87h-6.74l27.13-32.07c7.7,3.17,15.64,5.79,23.81,7.53,29.19,6.25,59.62,3.54,87.27-7.49l26.48,32.03Z"/>
    <g>
      <path d="M698.47,693.64l-23.68-.36v-35.18c0-.71,1.31-3.63,1.76-4.43,4.4-7.87,16.02-7.63,20.39.13.29.51,1.53,3.27,1.53,3.57v36.27ZM695.19,690v-31.53c0-.14-.86-2.31-1.02-2.63-3.71-7.2-15.02-5.24-15.76,2.98-.32,3.6.26,7.67.03,11.33l-.02,19.85h16.76Z"/>
      <path d="M695.19,690h-16.76l.02-19.85c.23-3.66-.35-7.73-.03-11.33.73-8.21,12.05-10.18,15.76-2.98.16.32,1.02,2.49,1.02,2.63v31.53Z"/>
    </g>
    <g>
      <path class="cls-2" d="M732.72,688.17v89.85l-.55.55h-29.33c.27-1.93-.3-3.78-.38-5.63-.9-20.05.39-40.45.42-60.49,2.59-14.25,15.31-24.64,29.84-24.28Z"/>
      <path class="cls-2" d="M776.81,778.57h-29.88v-90.4c12.67-.17,24.67,8,28.52,20.13.34,1.07,1.35,4.69,1.35,5.57v64.7Z"/>
      <rect class="cls-2" x="736.36" y="688.17" width="6.56" height="90.4"/>
    </g>
    <g>
      <path class="cls-2" d="M797.03,802.63l-6.37-20.05c3.72.67,7.64-.05,11.49-.02,1.04,0,1.94.39,2.88.4,6.6.05,13.22-.12,19.82.04l10.99,19.62h-38.8Z"/>
      <path class="cls-2" d="M689,782.95l-6.74,19.68h-38.8c3.34-6.78,7.41-13.29,11.48-19.68h34.07Z"/>
      <path class="cls-2" d="M689.36,795.7c-.21-.21.54-4.84,1.64-4.74l97.99-.02c.14,1.43,1.69,3.65.76,4.76h-100.38Z"/>
      <polygon class="cls-2" points="787.37 786.96 691.91 786.96 692.96 783.16 785.74 782.94 786.47 783.3 787.37 786.96"/>
      <rect class="cls-2" x="686.81" y="799.33" width="105.67" height="3.3"/>
    </g>
    <path class="cls-2" d="M781.18,456.71l-33.52-52.49,61.21,59.05c-7.97,2.37-15.67,5.57-23.68,7.84-26.97,7.64-54.98,8.4-82.35,2.19-10.96-2.49-21.46-6.41-32.06-10.03l61.03-59.41-32.43,51.39,40.45-58.31,41.35,59.77Z"/>
    <g>
      <path class="cls-2" d="M791.74,473.48l1.87,120.85-9.52,3.44-1.46-81.28-1.15,82.33c-26.75,8.38-56.2,8.27-83.03.24-.4-.27-.33-.68-.38-1.08-.53-4.32.13-10.39.04-14.98-.21-10.37-.61-20.95-.76-31.32-.19-12.85.12-25.66-.53-38.47l-1.28,84.93-9.77-3.7,1.76-120.96c4.58.8,8.95,2.41,13.47,3.47,24.45,5.73,51.3,5.89,75.8.36,5.02-1.13,9.9-2.79,14.93-3.83ZM752.41,497.52h-25.16v71.11h25.16v-71.11Z"/>
      <g>
        <path d="M752.41,497.52v71.11h-25.16v-71.11h25.16ZM748.75,501.18h-17.85v63.79h17.85v-63.79Z"/>
        <rect x="730.9" y="501.18" width="17.85" height="63.79"/>
      </g>
    </g>
    <rect x="737.39" y="370.42" width="4.86" height="23.59" rx="2.43" ry="2.43"/>
    <rect x="737.39" y="369.65" width="4.86" height="19.46" rx="2.43" ry="2.43" transform="translate(1119.2 -360.45) rotate(90)"/>
  </g>
</svg>